<svg width="1190" height="1190" viewBox="0 0 1190 1190" fill="none" xmlns="http://www.w3.org/2000/svg">
<path d="M594.842 1138.61C895.158 1138.61 1138.61 895.158 1138.61 594.842C1138.61 294.526 895.158 51.0709 594.842 51.0709C294.526 51.0709 51.0709 294.526 51.0709 594.842C51.0709 895.158 294.526 1138.61 594.842 1138.61Z" fill="url(#paint0_radial_2057_193)"/>
<path d="M209.245 496.172L207.086 507.989L251.347 516.062L251.061 517.613L245.075 521.177L233.513 519.073L242.433 537.865L237.258 540.889L228.677 521.41C226.791 526.022 224.758 529.675 222.58 532.355C220.401 535.036 218.373 536.746 216.482 537.484C214.591 538.235 212.27 538.352 209.531 537.846L201.909 536.467L200.844 542.294L195.313 541.283L203.727 495.161L209.245 496.172ZM227.807 518.035L205.98 514.059L202.989 530.477L209.99 531.747C212.378 532.184 214.28 532.283 215.684 532.043C217.102 531.803 218.615 531.159 220.237 530.097C221.872 529.047 223.4 527.391 224.836 525.127C226.285 522.876 227.275 520.517 227.807 518.035Z" fill="#EE8033"/>
<path d="M214.296 461.579L219.523 463.6L215.204 474.757L257.041 490.912L256.394 492.577L250.084 494.884L212.971 480.552L209.801 488.757L204.575 486.736L208.234 477.271C204.201 479.154 200.438 479.429 196.944 478.081C192.815 476.483 190.492 473.129 189.95 468.005C189.538 463.959 190.217 459.662 191.974 455.113C194.735 447.964 199.059 442.124 204.932 437.608C210.818 433.091 218.255 429.898 227.241 428.041L226.277 430.546C218.93 433.104 212.858 436.515 208.036 440.781C203.213 445.045 199.652 450.149 197.354 456.093C195.61 460.588 195.06 464.237 195.677 467.052C196.308 469.854 198.093 471.837 201.031 472.973C203.672 473.99 206.535 474.209 209.634 473.629L214.296 461.579Z" fill="#EE8033"/>
<path d="M231.535 417.431L236.761 419.452L232.443 430.663L274.375 446.857L273.701 448.59L267.418 450.816L244.17 441.834L240.643 450.973C239.124 454.913 238.717 457.899 239.423 459.945C240.128 462.004 241.625 463.462 243.9 464.347C246.337 465.285 249.36 465.327 252.97 464.446C256.579 463.566 261.558 461.783 267.878 459.085L268.568 460.793C260.07 464.657 253.841 466.936 249.879 467.63C245.903 468.325 242.298 468.058 239.062 466.803C236.313 465.733 234.396 464.103 233.326 461.912C232.254 459.721 232.445 456.737 233.912 452.946L238.97 439.826L230.21 436.444L219.286 464.702L214.06 462.681L231.535 417.431Z" fill="#EE8033"/>
<path d="M258.681 371.483L263.545 374.268L257.571 384.683L296.586 407.017L295.819 408.354L288.939 409.797L275.132 401.886C275.637 404.449 275.196 406.933 273.823 409.324C272.653 411.391 270.874 413.095 268.529 414.449C266.17 415.802 263.755 416.724 261.273 417.228C258.777 417.732 256.347 417.304 253.969 415.932L243.203 409.77L240.27 414.917L235.393 412.132L258.681 371.483ZM254.491 390.073L246.297 404.393L259.658 412.049C262.657 413.757 264.857 414.28 266.26 413.602C267.662 412.911 268.794 411.817 269.668 410.317C271.202 407.615 271.114 403.715 269.364 398.59L254.491 390.073Z" fill="#EE8033"/>
<path d="M297.578 321.805L301.968 325.286L294.546 334.671L342.725 372.811L341.546 374.292L334.758 374.408L328.82 369.708C328.642 375.484 327.55 379.651 325.518 382.209C323.69 384.512 321.068 385.827 317.64 386.114C314.211 386.415 311.595 385.841 309.777 384.405C308.847 383.674 307.839 382.348 306.764 380.456L299.844 389.181L294.032 387.505L316.095 359.632L308.527 353.645C308.362 359.421 307.258 363.587 305.24 366.147C303.411 368.462 300.775 369.764 297.36 370.065C293.932 370.365 291.316 369.791 289.498 368.355C288.568 367.611 287.56 366.299 286.472 364.406L279.565 373.132L273.739 371.456L295.803 343.582L290.699 339.532L266.754 369.789L262.35 366.308L297.578 321.805ZM300.206 347.063L293.61 355.384C292.12 357.27 291.507 359.387 291.743 361.749C291.993 364.112 292.838 365.855 294.292 367.006C295.302 367.805 296.448 368.119 297.744 367.947C299.041 367.789 300.136 367.131 301.029 365.999C303.982 362.256 304.026 356.197 301.162 347.821L300.206 347.063ZM320.484 363.113L313.889 371.447C312.412 373.319 311.786 375.436 312.035 377.799C312.285 380.161 313.13 381.918 314.571 383.056C315.581 383.855 316.741 384.182 318.023 384.01C319.319 383.838 320.414 383.18 321.308 382.049C324.275 378.319 324.318 372.26 321.441 363.871L320.484 363.113Z" fill="#EE8033"/>
<path d="M274.056 329.06L273.2 321.675L280.584 320.819L281.441 328.203L274.056 329.06Z" fill="#EE8033"/>
<path d="M334.39 287.25L338.224 291.337L329.969 299.112L339.533 308.134L330.803 316.338C327.64 319.314 325.76 322.082 325.176 324.629C324.593 327.189 325.307 329.528 327.304 331.66C328.806 333.248 330.838 334.085 333.388 334.169C335.938 334.252 338.211 333.349 340.208 331.473C341.362 330.387 342.178 329.245 342.659 328.02C341.715 327.825 340.761 327.225 339.809 326.207C339.045 325.392 338.742 324.283 338.886 322.854C339.043 321.438 339.672 320.2 340.812 319.128C342.442 317.6 344.228 316.802 346.159 316.76C348.089 316.718 349.704 317.39 351.004 318.775C352.224 320.078 352.48 322.307 351.744 325.446L363.823 327.44L361.385 331.042L349.803 329.28C349.19 330.234 348.469 331.08 347.668 331.844C345.319 334.043 342.328 335.386 338.668 335.876C335.021 336.352 331.649 336.074 328.551 335.028C325.454 333.983 323.101 332.605 321.492 330.894C319.254 328.518 318.461 325.894 319.114 323.038C319.78 320.167 322.19 316.768 326.385 312.841L331.504 308.015L326.33 302.517L305.977 321.658L302.13 317.572L334.39 287.25ZM349.36 328.967L345.801 347.285L339.84 346.653L344.95 324.27L349.36 328.967Z" fill="#EE8033"/>
<path d="M386.864 248.127L390.149 252.678L380.443 259.686L406.66 296.001L405.303 296.969L398.72 295.492L383.383 274.239C382.527 275.339 381.838 276.99 381.313 279.167C380.79 281.344 380.415 285.463 380.202 291.497L373.825 290.504C373.774 289.128 373.868 287.184 374.079 284.645C370.54 284.158 367.723 284.664 365.629 286.177C364.232 287.173 363.352 288.678 362.962 290.677C362.571 292.691 362.922 294.457 364.04 296C365.239 297.665 367.003 298.948 369.331 299.849C371.659 300.763 376.944 301.831 385.185 303.067L384.806 304.851L369.133 302.307C365.877 301.804 363.416 301.12 361.763 300.268C360.11 299.417 358.861 298.413 358.03 297.259C356.53 295.191 355.974 292.982 356.335 290.631C356.71 288.28 357.884 286.396 359.87 284.965C363.065 282.66 367.865 281.951 374.295 282.848C375.281 277.281 377.492 273.27 380.916 270.803L375.476 263.271L344.597 285.548L341.325 280.997L386.864 248.127Z" fill="#EE8033"/>
<path d="M343.904 259.856L337.924 255.892L341.226 253.506C343.106 252.143 345.123 251.17 347.278 250.574C349.433 249.977 351.645 249.786 353.927 249.999C356.21 250.198 359.576 251.024 364.027 252.463L377.108 256.673L375.121 258.104L364.612 254.969C361.163 253.941 358.204 253.517 355.736 253.711C353.254 253.904 350.764 254.907 348.268 256.707L343.904 259.856Z" fill="#EE8033"/>
<path d="M449.203 218.349L451.54 223.45L440.623 228.465L459.318 269.237L458.026 269.839L451.437 266.934L450.152 264.134C447.961 267.952 445.277 270.586 442.086 272.048C438.654 273.62 435.23 274.328 431.814 274.158C428.386 273.989 424.655 272.971 420.623 271.131C416.591 269.279 413.518 267.649 411.418 266.244C409.318 264.826 407.728 262.919 406.635 260.522C405.542 258.153 405.749 256.627 407.257 255.93C407.903 255.63 408.78 255.625 409.861 255.915C411.078 256.219 411.969 256.321 412.521 256.21L407.255 243.757L396.621 248.636L394.284 243.534L449.203 218.349ZM434.983 231.048L411.778 241.68L416.408 253.786C416.956 255.241 417.37 256.831 417.623 258.57C417.889 260.31 417.785 263.266 417.323 267.452C421.398 269.75 424.887 271.094 427.791 271.468C430.708 271.843 433.634 271.354 436.582 270.001C440.606 268.156 444.105 263.98 447.091 257.458L444.672 252.168C442.07 257.392 439.645 260.524 437.371 261.562C434.988 262.655 432.153 262.509 428.825 261.152C425.511 259.794 423.301 257.917 422.221 255.548C420.978 252.843 421.043 250.224 422.419 247.692C423.795 245.174 425.997 243.205 429.012 241.825C431.893 240.513 435.619 240.708 440.19 242.395L434.983 231.048ZM441.352 244.953L440.955 244.091C437.339 244.153 434.494 244.655 432.435 245.611C430.214 246.622 428.361 248.239 426.889 250.434C425.417 252.629 425.077 254.574 425.856 256.27C426.402 257.468 427.378 258.258 428.784 258.628C430.176 258.998 431.553 258.883 432.898 258.267C434.809 257.393 436.944 255.478 439.289 252.536C441.635 249.58 442.322 247.053 441.352 244.953Z" fill="#EE8033"/>
<path d="M404.794 221.454L399.69 216.396L403.392 214.701C405.505 213.731 407.675 213.166 409.901 213.004C412.127 212.83 414.341 213.074 416.532 213.722C418.721 214.371 421.86 215.824 425.949 218.095L437.958 224.761L435.737 225.786L426.045 220.659C422.864 218.99 420.051 218.008 417.58 217.711C415.122 217.428 412.48 217.929 409.68 219.214L404.794 221.454Z" fill="#EE8033"/>
<path d="M502.629 202.534L504.153 207.936L492.579 211.185L504.681 254.375L503.087 254.83L497.348 251.185L493.804 238.543C490.297 242.759 486.877 245.328 483.527 246.264C480.434 247.133 476.955 246.462 473.087 244.252C469.22 242.029 466.918 239.594 466.169 236.934C465.675 235.178 465.895 233.33 466.832 231.362C467.754 229.407 469.446 227.617 471.906 225.977C474.367 224.35 476.529 223.276 478.406 222.741C481.782 221.792 485.653 222.544 490.007 224.998L486.597 212.857L456.912 221.174L455.401 215.772L502.629 202.534ZM491.263 229.482L490.728 227.591C488.099 226.599 485.698 226.404 483.51 227.019C480.512 227.861 477.579 229.568 474.724 232.138C471.857 234.695 470.704 237.013 471.292 239.066C471.746 240.686 472.675 241.89 474.09 242.65C475.519 243.422 476.976 243.588 478.475 243.174C480.19 242.692 482.8 240.634 486.277 237.026C489.742 233.405 491.408 230.899 491.263 229.482Z" fill="#EE8033"/>
<path d="M581.706 191.757L582.171 197.341L570.193 198.318L573.825 243.034L572.166 243.179L567.225 238.499L566.161 225.415C561.931 228.882 558.069 230.755 554.602 231.032C551.405 231.294 548.118 229.978 544.739 227.057C541.375 224.148 539.576 221.312 539.357 218.56C539.211 216.739 539.767 214.968 541.065 213.219C542.35 211.484 544.352 210.041 547.072 208.904C549.804 207.767 552.135 207.119 554.078 206.972C557.571 206.681 561.224 208.157 565.023 211.386L564.002 198.828L533.274 201.322L532.821 195.725L581.706 191.757ZM565.402 216.04L565.242 214.071C562.844 212.6 560.518 211.954 558.266 212.143C555.163 212.391 551.958 213.504 548.663 215.48C545.356 217.458 543.789 219.505 543.964 221.636C544.096 223.309 544.792 224.667 546.04 225.686C547.288 226.704 548.68 227.154 550.232 227.037C552.026 226.891 554.959 225.375 559.071 222.489C563.17 219.603 565.275 217.458 565.402 216.04Z" fill="#EE8033"/>
<path d="M651.455 195.796L648.784 195.577C644.26 189.26 639.27 184.385 633.825 180.951C628.38 177.531 622.481 175.552 616.128 175.027C611.326 174.633 607.665 175.124 605.147 176.513C602.628 177.901 601.238 180.173 600.976 183.316C600.743 186.135 601.333 188.946 602.773 191.748L615.641 192.825L615.176 198.41L603.252 197.419L599.539 242.095L597.772 241.949L593.783 236.54L597.073 196.909L588.292 196.181L588.758 190.597L598.875 191.427C595.926 188.09 594.612 184.559 594.918 180.836C595.282 176.425 597.852 173.243 602.6 171.287C606.375 169.758 610.697 169.191 615.553 169.585C620.855 170.035 625.759 171.347 630.28 173.548C634.801 175.748 638.912 178.823 642.627 182.773C642.657 182.179 642.688 181.572 642.746 180.965C642.965 178.24 644.03 176.155 645.915 174.722C647.718 173.343 650.002 172.763 652.754 172.996C655.384 173.215 657.848 174.255 660.144 176.104C661.689 177.342 663.525 179.337 665.681 182.076L664.216 183.376C660.648 179.913 657.595 178.073 655.045 177.868C653.049 177.694 651.278 178.223 649.732 179.442C648.173 180.66 647.312 182.275 647.152 184.258C647.022 185.701 647.376 187.444 648.187 189.46C649.308 191.464 650.402 193.576 651.455 195.796Z" fill="#EE8033"/>
<path d="M667.284 196.927L666.817 202.525L654.893 201.534L651.165 246.439L649.587 246.308L645.424 240.655L646.065 232.939C642.134 235.682 639.061 237.391 636.816 238.092C634.585 238.794 632.37 239.051 630.198 238.875C626.705 238.584 623.852 237.15 621.655 234.572C619.443 232.008 618.49 229.006 618.767 225.593C618.986 223.004 619.728 220.795 621.007 218.967C622.287 217.14 624.104 215.693 626.459 214.628C623.725 213.761 621.454 212.168 619.646 209.836C617.825 207.504 617.03 205.056 617.248 202.479C617.481 199.701 618.601 197.386 620.61 195.509C622.632 193.646 624.999 192.823 627.697 193.042C630.503 193.275 632.709 194.368 634.304 196.294C635.898 198.22 636.585 200.573 636.353 203.365C636.164 205.591 635.276 207.286 633.69 208.464C632.103 209.642 630.197 210.143 627.999 209.954C625.557 209.75 623.671 209.402 622.338 208.894C623.928 211.373 626.253 212.98 629.312 213.714C630.379 213.504 631.487 213.457 632.62 213.545C634.157 213.676 635.626 214.049 637.012 214.665C638.412 215.281 640.317 217.141 642.755 220.22C640.922 219.777 638.765 219.453 636.297 219.249C631.602 218.856 627.981 219.657 625.445 221.653C622.896 223.648 621.519 225.853 621.329 228.268C621.183 229.994 621.62 231.441 622.652 232.595C623.671 233.748 625.178 234.418 627.148 234.578C630.102 234.826 634.077 233.662 639.059 231.088C644.041 228.514 646.735 224.778 647.143 219.869L648.715 201.011L642.807 200.529L639.334 194.611L667.284 196.927ZM622.01 207.165C625.342 207.441 628.098 206.999 630.305 205.825C632.498 204.664 633.682 203.025 633.857 200.894C633.958 199.814 633.667 198.909 632.996 198.162C632.34 197.429 631.438 197.006 630.305 196.918C627.998 196.715 626.091 197.445 624.583 199.096C623.075 200.734 622.198 202.901 621.98 205.572C621.95 205.909 621.961 206.449 622.01 207.165Z" fill="#EE8033"/>
<path d="M666.4 181.589L664.934 182.903C661.366 179.426 658.313 177.599 655.764 177.381C653.7 177.207 651.902 177.763 650.382 179.035C648.863 180.308 648.017 181.896 647.857 183.784C647.74 185.201 648.323 186.959 649.579 189.071C650.848 191.185 652.79 193.639 655.419 196.422L652.734 196.19C649.445 193.456 647.031 190.797 645.482 188.183C643.919 185.569 643.246 183 643.464 180.478C643.668 177.969 644.652 175.937 646.402 174.423C648.152 172.909 650.505 172.261 653.472 172.509C655.603 172.697 657.61 173.398 659.518 174.624C661.428 175.85 663.721 178.172 666.4 181.589Z" fill="#EE8033"/>
<path d="M698.284 239.862C694.997 240.973 692.096 241.096 689.568 240.26C685.512 238.918 682.191 236.169 679.605 232.013C677.018 227.857 676.137 224.514 676.987 221.999L682.552 205.222L676.55 203.229L678.329 197.903L708.857 208.064L707.09 213.39L689.609 207.573L700.037 234.576L698.284 239.862ZM698.285 234.95L687.995 208.539L682.217 225.899C681.367 228.481 681.338 230.613 682.157 232.296C682.975 233.979 684.629 235.238 687.13 236.075C690.131 237.072 693.854 236.701 698.285 234.95Z" fill="#EE8033"/>
<path d="M762.04 225.916L760.273 231.242L748.863 227.443L734.677 270.138L733.284 269.673L730.55 263.102L743.049 225.517L732.666 222.064C731.843 224.7 730.783 228.282 729.471 232.783C728.279 236.973 727.523 239.541 727.204 240.488C726.182 243.57 724.614 245.792 722.503 247.18C720.392 248.554 718.328 248.916 716.328 248.252C714.178 247.534 711.856 244.834 709.348 240.138C706.839 235.441 705.851 232.275 706.395 230.653L711.589 215.051L705.952 213.178L707.731 207.851L762.04 225.916ZM727.38 220.297L717.47 217.003L711.068 236.255C710.629 237.58 710.69 238.794 711.236 239.912C711.781 241.015 712.663 241.78 713.893 242.192C715.286 242.657 716.729 242.609 718.211 242.047C719.692 241.473 720.659 240.509 721.111 239.13L727.38 220.297Z" fill="#EE8033"/>
<path d="M727.568 272.125L727.998 266.441C728.848 266.544 730.01 266.848 731.484 267.34C734.864 268.469 737.344 270.358 738.95 273.036C740.544 275.699 740.829 278.586 739.793 281.696C738.783 284.737 736.905 286.772 734.184 287.799C731.45 288.825 728.332 288.747 724.804 287.578C721.072 286.33 717.752 283.784 714.843 279.925C711.935 276.081 709.763 271.207 708.328 265.344L710.681 266.128C711.986 270.508 713.949 274.127 716.61 277.001C719.27 279.861 722.614 281.976 726.67 283.317C729.767 284.354 732.238 284.677 734.071 284.304C735.905 283.93 737.114 282.87 737.698 281.113C738.163 279.693 737.722 278.171 736.378 276.572C735.02 274.973 733.124 273.769 730.704 272.958C729.433 272.533 728.379 272.255 727.568 272.125Z" fill="#EE8033"/>
<path d="M824.182 262.075L821.845 260.744C820.428 253.107 817.974 246.58 814.496 241.175C811.005 235.756 806.489 231.472 800.964 228.311C796.789 225.916 793.266 224.815 790.391 224.995C787.517 225.19 785.293 226.665 783.719 229.407C782.32 231.853 781.677 234.647 781.777 237.805L792.99 244.222L790.205 249.086L779.816 243.139L757.536 282.045L755.997 281.157L754.676 274.574L774.44 240.058L766.793 235.686L769.578 230.809L778.386 235.854C777.137 231.592 777.427 227.826 779.297 224.584C781.49 220.747 785.158 218.945 790.3 219.193C794.363 219.402 798.521 220.717 802.75 223.138C807.357 225.775 811.249 229.048 814.414 232.956C817.579 236.864 820.002 241.394 821.699 246.547C821.981 246.006 822.263 245.479 822.56 244.952C823.932 242.575 825.765 241.141 828.085 240.651C830.297 240.161 832.606 240.603 835.011 241.975C837.293 243.28 839.092 245.26 840.392 247.917C841.259 249.697 842.087 252.273 842.876 255.673L841.001 256.242C839.238 251.589 837.235 248.624 835.02 247.359C833.291 246.364 831.455 246.084 829.539 246.533C827.611 246.981 826.155 248.064 825.159 249.806C824.433 251.062 824.018 252.777 823.886 254.95C824.066 257.244 824.164 259.619 824.182 262.075Z" fill="#EE8033"/>
<path d="M834.535 268.063L831.75 272.926L821.321 266.966L799.041 305.859L797.609 305.038L796.181 298.401L802.692 287.013C797.241 287.468 793.016 286.841 789.99 285.106C787.207 283.518 785.245 280.566 784.117 276.263C782.989 271.96 783.105 268.6 784.477 266.208C785.378 264.628 786.861 263.491 788.897 262.773C790.947 262.067 793.417 262.009 796.293 262.624C799.182 263.227 801.464 264.019 803.166 264.987C806.205 266.723 808.37 269.998 809.688 274.814L815.944 263.885L789.21 248.575L791.995 243.698L834.535 268.063ZM807.374 278.853L808.343 277.138C807.205 274.575 805.649 272.729 803.691 271.613C800.989 270.065 797.721 269.167 793.888 268.931C790.055 268.695 787.6 269.496 786.538 271.346C785.703 272.805 785.517 274.317 785.965 275.855C786.413 277.406 787.306 278.565 788.657 279.345C790.21 280.233 793.491 280.646 798.497 280.583C803.518 280.533 806.472 279.948 807.374 278.853Z" fill="#EE8033"/>
<path d="M839.993 254.173L838.118 254.743C836.355 250.09 834.366 247.124 832.15 245.86C830.34 244.824 828.491 244.557 826.576 245.073C824.647 245.59 823.218 246.658 822.276 248.307C821.576 249.536 821.351 251.385 821.598 253.828C821.845 256.283 822.579 259.318 823.773 262.947L821.436 261.615C819.621 257.745 818.562 254.305 818.26 251.283C817.957 248.26 818.439 245.655 819.69 243.453C820.941 241.264 822.693 239.844 824.919 239.206C827.144 238.581 829.561 238.995 832.141 240.475C833.991 241.538 835.519 243.033 836.724 244.948C837.928 246.862 839.014 249.936 839.993 254.173Z" fill="#EE8033"/>
<path d="M851.995 314.427C848.801 310.857 846.24 307.054 844.297 303.045L828.154 300.638L827.333 294.597L841.534 297.219C839.907 293.991 839.066 291.175 838.997 288.774C838.927 286.371 839.643 284.37 841.145 282.781C842.472 281.356 844.276 280.723 846.517 280.871C848.772 281.018 850.68 281.83 852.228 283.29C854.536 285.462 855.783 288.355 855.995 291.985C856.207 295.6 855.334 298.453 853.378 300.517C851.487 302.513 849.118 303.352 846.254 303.046C847.471 305.454 849.487 308.383 852.33 311.82C855.267 315.391 857.149 318.294 857.973 320.542C858.797 322.778 859.244 325.244 859.342 327.956L874.195 312.22L859.613 298.467L860.758 291.833L891.213 320.559L887.365 324.646L878.622 316.402L847.817 349.043L846.609 347.904L847.077 340.95L849.691 338.194C844.274 337.365 840.296 335.744 837.77 333.358C835.436 331.159 834.213 327.82 834.117 323.367C834.034 318.914 834.931 315.683 836.835 313.673C838.242 312.18 840.235 311.385 842.812 311.314C845.376 311.244 848.446 312.276 851.995 314.427ZM852.769 296.149C853.802 295.049 854.279 293.818 854.189 292.428C854.099 291.039 853.484 289.814 852.357 288.742C851.095 287.549 849.66 286.951 848.054 286.934C846.448 286.931 845.049 287.56 843.855 288.823C842.917 289.814 842.426 291.033 842.381 292.463C842.349 293.894 842.751 295.551 843.6 297.448C848.194 298.188 851.254 297.751 852.769 296.149ZM856.152 331.351L857.506 329.911C856.989 327.148 855.909 324.982 854.266 323.427C851.999 321.296 849.033 319.655 845.354 318.531C841.677 317.394 839.1 317.6 837.639 319.161C836.473 320.383 835.942 321.804 836.02 323.409C836.084 325.028 836.687 326.36 837.827 327.433C839.13 328.666 842.229 329.834 847.108 330.95C852 332.066 855.011 332.195 856.152 331.351Z" fill="#EE8033"/>
<path d="M939.53 384.102L934.979 387.388L927.944 377.641L891.561 403.898L890.593 402.542L892.029 395.905L902.676 388.216C897.521 386.391 893.914 384.056 891.882 381.236C890.001 378.632 889.436 375.127 890.186 370.735C890.924 366.344 892.427 363.337 894.669 361.728C896.146 360.665 897.965 360.233 900.112 360.42C902.273 360.62 904.547 361.589 906.922 363.339C909.296 365.077 911.063 366.737 912.208 368.321C914.252 371.167 914.888 375.05 914.088 379.982L924.317 372.606L906.267 347.594L910.818 344.323L939.53 384.102ZM910.301 382.708L911.899 381.563C911.919 378.742 911.268 376.426 909.946 374.586C908.132 372.062 905.512 369.895 902.111 368.098C898.724 366.287 896.158 366.009 894.426 367.263C893.056 368.244 892.256 369.546 892.024 371.14C891.794 372.734 892.141 374.163 893.041 375.425C894.091 376.874 896.911 378.608 901.514 380.626C906.104 382.644 909.037 383.338 910.301 382.708Z" fill="#EE8033"/>
<path d="M938.5 359.747L945.836 360.922L944.662 368.272L937.311 367.083L938.5 359.747Z" fill="#EE8033"/>
<path d="M955.982 415.68L950.88 418.03L945.892 407.14L905.12 425.835L904.369 424.22L907.127 418.077L943.31 401.501L939.634 393.491L944.735 391.155L948.971 400.375C950.432 396.17 952.858 393.295 956.264 391.737C960.167 389.947 964.002 390.357 967.783 392.967C970.966 395.162 973.508 398.346 975.422 402.519C978.305 408.818 979.192 415.359 978.057 422.167C976.935 428.975 973.804 436.038 968.663 443.355L967.543 440.905C971.082 434.38 973.139 428.214 973.726 422.381C974.314 416.547 973.419 411.046 971.068 405.904C969.278 402.027 967.226 399.448 964.884 398.166C962.542 396.897 959.937 396.912 957.07 398.237C954.499 399.412 952.35 401.314 950.598 403.942L955.982 415.68Z" fill="#EE8033"/>
<path d="M973.835 454.95L968.733 457.287L964.005 446.976L952.407 453.156L947.419 442.28C945.602 438.322 943.576 435.662 941.341 434.298C939.106 432.934 936.663 432.853 934.011 434.069C932.019 434.985 930.585 436.64 929.694 439.034C928.804 441.427 928.925 443.869 930.073 446.36C930.729 447.786 931.559 448.929 932.549 449.787C933.044 448.947 933.917 448.241 935.182 447.666C936.191 447.202 937.352 447.263 938.651 447.862C939.951 448.449 940.928 449.455 941.57 450.869C942.5 452.902 942.686 454.844 942.103 456.683C941.533 458.521 940.38 459.851 938.657 460.629C937.028 461.381 934.839 460.908 932.09 459.209L926.348 470.012L923.724 466.572L929.09 456.149C928.383 455.263 927.797 454.308 927.346 453.298C926.007 450.377 925.678 447.113 926.386 443.492C927.094 439.885 928.44 436.773 930.422 434.171C932.405 431.568 934.46 429.775 936.586 428.805C939.561 427.439 942.288 427.531 944.793 429.069C947.298 430.593 949.747 433.98 952.139 439.203L955.063 445.596L961.928 442.454L950.285 417.053L955.386 414.716L973.835 454.95Z" fill="#EE8033"/>
<path d="M988.6 510.582L983.135 511.836L980.449 500.135L936.629 510.16L936.211 508.351L940.179 502.994L964.471 497.422L962.285 487.88C961.341 483.765 960.005 481.065 958.278 479.756C956.551 478.447 954.486 478.069 952.097 478.622C949.56 479.202 947.036 480.862 944.526 483.615C942.029 486.355 938.911 490.619 935.173 496.395L933.648 495.369C938.52 487.407 942.42 482.036 945.309 479.242C948.211 476.436 951.355 474.654 954.742 473.871C957.617 473.224 960.113 473.494 962.232 474.709C964.351 475.937 965.862 478.515 966.766 482.469L969.896 496.181L979.074 494.09L972.3 464.547L977.78 463.292L988.6 510.582Z" fill="#EE8033"/>
<path d="M988.442 509.487L994.459 535.79L988.993 537.045L986.322 525.372L942.488 535.409L942.164 533.979L946.456 528.136L984.932 519.326L982.962 510.742L988.442 509.487Z" fill="#EE8033"/>
<path d="M236.395 702.153L230.956 703.544L227.976 691.895L184.385 703.043L183.947 701.33L187.868 695.744L203.309 691.795L199.283 676.054L192.772 677.719C191.242 678.11 190.344 677.811 190.089 676.817C189.842 675.849 191.13 673.151 193.961 668.75C196.788 664.336 198.831 661.975 200.086 661.654C200.884 661.45 201.43 661.951 201.737 663.154L203.145 668.658L220.874 664.124L217.975 652.789L223.414 651.398L236.395 702.153ZM204.683 674.673L208.709 690.415L226.438 685.88L222.412 670.138L204.683 674.673ZM253.998 747.954L248.823 750.132L244.469 739.782L231.118 746.468L222.592 726.205C221.99 724.775 221.335 723.776 220.651 723.229C219.962 722.67 219.238 722.55 218.479 722.87C217.559 723.257 216.644 724.11 215.728 725.447C214.819 726.767 213.921 728.565 213.042 730.824C216.051 732.896 218.337 735.755 219.871 739.4C221.274 742.734 221.292 746.152 219.931 749.668C218.582 753.178 216.523 755.523 213.749 756.69C211.734 757.538 209.546 757.8 207.179 757.464C204.799 757.133 202.234 756.221 199.453 754.726L201.819 748.797C204.862 750.81 207.458 752.177 209.605 752.929C211.746 753.668 213.432 753.778 214.675 753.255C216.106 752.653 217.035 751.589 217.461 750.062C217.905 748.543 217.72 746.849 216.946 745.009C215.464 741.488 213.072 738.586 209.748 736.324C206.437 734.057 203.257 733.564 200.197 734.852C196.664 736.338 194.091 740.452 192.476 747.193C191.657 750.569 191.202 754.362 191.084 758.57C190.966 762.778 191.196 767.395 191.756 772.416L190.028 772.587L189.791 769.553C188.979 759.411 189.516 750.458 191.397 742.713C192.34 738.831 193.573 735.706 195.107 733.333C196.636 730.947 198.492 729.303 200.644 728.397C203.667 727.125 207.252 727.608 211.425 729.835C214.303 723.104 217.07 719.172 219.72 718.058C221.449 717.33 222.912 717.432 224.124 718.328C225.34 719.236 226.547 721.129 227.766 724.028L234.068 739.005L242.626 735.404L231.232 708.324L236.407 706.146L253.998 747.954ZM264.021 771.775L258.846 773.953L254.199 762.906L212.726 780.357L212.161 779.014L215.399 772.512L251.796 757.197L248.373 749.062L253.548 746.885L264.021 771.775ZM282.119 798.66L277.315 801.565L268.217 786.516C266.662 788.56 264.596 790.361 262.055 791.897C259.261 793.587 256.257 794.567 253.039 794.825C249.827 795.095 246.419 794.648 242.82 793.496C241.77 797.002 240.89 801.05 240.176 805.661C239.456 810.26 238.913 815.413 238.513 821.143L236.735 821.019C237.029 816 237.473 811.284 238.074 806.852C238.682 802.432 239.432 798.273 240.326 794.404C242.152 786.677 244.116 782.179 246.218 780.908C248.285 779.658 250.162 780.416 251.845 783.199C252.648 784.527 253.33 786.307 253.871 788.534C256.555 788.851 258.84 788.432 260.735 787.287C262.224 786.386 263.857 784.705 265.633 782.243L256.368 766.918L261.173 764.013L282.119 798.66ZM295.497 820.787L290.692 823.692L284.492 813.437L245.988 836.715L245.234 835.468L247.495 828.565L281.287 808.136L276.721 800.583L281.525 797.678L295.497 820.787ZM322.832 850.523L318.494 854.086L313.055 847.463L303.47 855.334C301.363 857.064 299.258 858.094 297.163 858.435C295.058 858.784 293.02 858.45 291.047 857.451C289.075 856.433 286.511 854.522 283.337 851.698C279.564 848.317 276.58 846.385 274.375 845.89C272.16 845.405 270.125 845.923 268.247 847.465C265.045 850.094 265.437 853.825 269.393 858.643C270.79 860.343 273.061 862.11 276.209 863.943C279.354 865.796 282.453 867.145 285.476 867.998L284.089 874.114C278.193 872.442 273.317 869.269 269.489 864.607C266.346 860.779 264.552 856.681 264.128 852.315C263.684 847.947 265.02 844.492 268.118 841.948C272.268 838.54 277.058 839.269 282.484 844.174C281.983 841.651 281.811 839.208 282.006 836.83C282.19 834.461 282.548 832.77 283.081 831.739C283.605 830.697 284.45 829.706 285.587 828.772L292.825 822.829L287.832 816.748L292.171 813.185L322.832 850.523ZM297.08 852.549L309.115 842.665L297.57 828.606L297.08 852.549ZM295.294 852.671L295.795 828.422L287.264 835.428C283.154 838.803 282.888 842.689 286.485 847.069C288.857 849.958 291.809 851.83 295.294 852.671ZM268.789 869.687L248.288 864.223L249.319 858.312L271.31 864.91L272.209 866.005L266.18 883.948L264.229 883.316L268.789 869.687ZM335.072 895.398C332.075 894.7 329.151 893.152 326.273 890.765C324.082 888.947 321.993 886.286 320.025 882.761C316.605 884.307 313.733 885.169 311.409 885.328C311.388 889.413 311.41 893.149 311.488 896.544C311.573 899.929 311.722 902.962 311.934 905.645L310.198 905.942C309.822 900.37 309.584 895.562 309.48 891.565C309.384 887.559 309.409 884.336 309.576 881.915C309.926 877.032 310.832 873.699 312.297 871.933C313.15 870.904 314.035 870.323 314.943 870.2C315.852 870.077 316.784 870.412 317.739 871.205C318.851 872.126 319.836 873.539 320.711 875.422C322.83 874.813 324.902 873.287 326.943 870.825C328.184 869.329 329.085 867.376 329.646 864.966L319.84 856.834L323.424 852.512L350.598 875.049L347.014 879.371L333.541 868.197C332.129 871.338 330.767 873.698 329.457 875.277C328.122 876.887 326.232 878.616 323.761 880.477C325.865 883.922 327.843 886.421 329.681 887.946C332.247 890.074 335.349 890.964 339.035 890.619L335.072 895.398ZM388.005 906.072L384.421 910.393L375.166 902.718L346.443 937.351L345.809 936.825L345.102 929.243L352.373 920.476C349.313 920.445 346.405 919.278 343.621 916.97C341.617 915.307 340.137 912.905 339.201 909.762C338.266 906.62 337.67 901.567 337.431 894.583L337.939 893.97C341.34 896.317 344.398 897.45 347.116 897.408C349.832 897.346 352.198 896.1 354.222 893.659C355.816 891.737 356.48 889.5 356.177 886.969L346.131 878.638L349.715 874.317L388.005 906.072ZM370.387 898.755L358.004 888.485C359.258 892.873 358.678 896.531 356.249 899.46C354.268 901.849 351.883 903.203 349.103 903.51C346.326 903.836 343.162 903.106 339.602 901.31C339.951 903.827 340.483 905.933 341.227 907.637C341.951 909.343 342.869 910.647 343.99 911.577C346.016 913.257 348.341 914.239 350.956 914.532C353.58 914.814 355.475 914.685 356.638 914.107C357.801 913.529 359.472 911.916 361.66 909.277L370.387 898.755ZM433.279 928.092L430.832 933.145L415.005 925.482C414.815 928.044 414.063 930.679 412.77 933.351C411.347 936.29 409.361 938.748 406.804 940.718C404.257 942.694 401.155 944.176 397.511 945.17C398.539 948.682 400.007 952.557 401.92 956.812C403.821 961.061 406.173 965.678 408.96 970.701L407.401 971.566C404.913 967.197 402.717 963 400.807 958.956C398.908 954.918 397.271 951.022 395.914 947.291C393.235 939.816 392.431 934.974 393.502 932.763C394.554 930.589 396.542 930.202 399.469 931.619C400.865 932.295 402.407 933.416 404.075 934.989C406.498 933.793 408.186 932.196 409.15 930.204C409.909 928.637 410.363 926.338 410.511 923.306L394.392 915.501L396.839 910.448L433.279 928.092ZM456.552 939.36L454.105 944.413L443.319 939.191L423.711 979.688L422.399 979.053L420.535 972.032L437.744 936.492L429.8 932.645L432.246 927.592L456.552 939.36ZM480.669 952.368L444.491 943.009L445.897 937.574L482.075 946.933L480.669 952.368ZM477.91 967.128L466.086 964.069C468.59 968.453 469.474 972.096 468.723 974.997C468.03 977.675 466.564 979.68 464.341 981C462.108 982.304 459.63 982.611 456.9 981.905C453.529 981.033 450.733 978.205 448.527 973.425C446.317 968.657 444.879 962.471 444.191 954.892L445.969 954.376C447.169 961.81 448.788 967.135 450.808 970.32C452.824 973.518 454.865 975.385 456.929 975.918C458.458 976.314 459.834 976.168 461.04 975.491C462.264 974.803 463.065 973.7 463.46 972.172C463.758 971.022 463.681 969.538 463.231 967.721C462.794 965.908 460.78 961.999 457.186 956.009L479.306 961.732L477.91 967.128ZM529.123 959.104L527.717 964.54L516.076 961.528L504.807 1005.09L504.01 1004.88L500.145 998.32L502.998 987.293C500.216 988.567 497.088 988.747 493.586 987.841C491.065 987.189 488.705 985.644 486.521 983.198C484.339 980.751 481.65 976.431 478.464 970.212L478.664 969.442C482.74 970.12 485.989 969.845 488.431 968.651C490.863 967.44 492.475 965.306 493.269 962.236C493.894 959.818 493.543 957.511 492.193 955.35L479.558 952.081L480.964 946.646L529.123 959.104ZM510.066 959.973L494.492 955.944C497.492 959.383 498.523 962.94 497.57 966.624C496.793 969.629 495.21 971.868 492.825 973.328C490.449 974.805 487.275 975.489 483.29 975.378C484.676 977.507 486.053 979.187 487.451 980.413C488.832 981.649 490.217 982.439 491.627 982.804C494.175 983.463 496.697 983.363 499.188 982.516C501.683 981.655 503.343 980.733 504.151 979.715C504.957 978.697 505.784 976.527 506.642 973.208L510.066 959.973ZM553.19 986.496C550.37 987.728 547.1 988.235 543.367 988.043C540.523 987.896 537.258 987.011 533.573 985.361C531.755 988.646 529.968 991.053 528.201 992.57C530.626 995.857 532.877 998.839 534.969 1001.51C537.061 1004.18 538.994 1006.52 540.768 1008.54L539.554 1009.82C535.921 1005.58 532.856 1001.86 530.384 998.723C527.911 995.569 526.005 992.97 524.691 990.93C522.053 986.807 520.786 983.593 520.904 981.302C520.973 979.967 521.336 978.972 521.99 978.331C522.645 977.689 523.592 977.4 524.832 977.464C526.274 977.539 527.908 978.082 529.736 979.068C531.07 977.313 531.819 974.851 531.984 971.658C532.084 969.717 531.639 967.612 530.647 965.345L517.925 964.688L518.214 959.081L553.471 960.902L553.182 966.509L535.702 965.606C536.447 968.969 536.766 971.675 536.661 973.723C536.553 975.812 536.071 978.328 535.202 981.297C538.948 982.801 542.028 983.622 544.413 983.745C547.743 983.917 550.761 982.776 553.51 980.296L553.19 986.496ZM602.004 963.408L601.714 969.015L589.706 968.395L587.385 1013.33L586.563 1013.29L581.463 1007.63L582.051 996.256C579.579 998.061 576.551 998.864 572.939 998.678C570.338 998.543 567.716 997.503 565.088 995.543C562.459 993.582 558.96 989.888 554.594 984.433L554.635 983.638C558.764 983.486 561.893 982.566 564.046 980.908C566.186 979.234 567.338 976.821 567.502 973.654C567.63 971.161 566.824 968.97 565.069 967.123L552.036 966.45L552.325 960.843L602.004 963.408ZM583.506 968.075L567.44 967.245C571.068 970.013 572.791 973.291 572.594 977.092C572.435 980.192 571.332 982.703 569.287 984.611C567.256 986.533 564.283 987.839 560.356 988.528C562.14 990.336 563.826 991.707 565.441 992.628C567.041 993.563 568.556 994.059 570.012 994.134C572.64 994.27 575.09 993.667 577.361 992.339C579.633 990.996 581.075 989.76 581.662 988.601C582.249 987.442 582.624 985.151 582.801 981.727L583.506 968.075ZM665.356 954.794L666.197 960.345L654.308 962.146L661.05 1006.63L659.302 1006.9L654.135 1002.44L651.747 986.68L635.682 989.115L636.689 995.76C636.926 997.321 636.538 998.185 635.524 998.339C634.537 998.489 631.981 996.937 627.884 993.682C623.774 990.428 621.628 988.16 621.434 986.879C621.311 986.065 621.865 985.572 623.092 985.385L628.709 984.534L625.967 966.441L614.399 968.194L613.558 962.643L665.356 954.794ZM634.847 983.604L650.912 981.17L648.17 963.077L632.105 965.511L634.847 983.604ZM655.566 1011.34L653.376 1006.08C654.179 1005.79 655.355 1005.53 656.902 1005.3C660.412 1004.76 663.485 1005.32 666.126 1006.98C668.764 1008.63 670.321 1011.07 670.812 1014.31C671.294 1017.49 670.551 1020.15 668.584 1022.31C666.616 1024.45 663.805 1025.8 660.122 1026.36C656.239 1026.95 652.125 1026.19 647.79 1024.07C643.443 1021.95 639.292 1018.61 635.35 1014.03L637.805 1013.66C640.956 1016.98 644.352 1019.3 648.024 1020.66C651.696 1022.01 655.639 1022.36 659.869 1021.72C663.097 1021.23 665.444 1020.41 666.904 1019.23C668.365 1018.07 668.958 1016.57 668.681 1014.74C668.456 1013.26 667.382 1012.12 665.443 1011.3C663.505 1010.49 661.273 1010.27 658.752 1010.65C657.417 1010.85 656.36 1011.08 655.566 1011.34ZM707.529 942.615L709.188 947.979L698.358 951.328L702.982 963.629L691.546 967.166C687.381 968.454 684.489 970.111 682.835 972.163C681.19 974.197 680.809 976.617 681.674 979.415C682.32 981.504 683.774 983.145 686.019 984.329C688.282 985.523 690.728 985.713 693.345 984.903C694.853 984.436 696.101 983.768 697.059 982.893C696.296 982.296 695.715 981.331 695.3 979.99C694.973 978.932 695.19 977.806 695.942 976.585C696.698 975.376 697.822 974.534 699.305 974.076C701.445 973.414 703.39 973.49 705.152 974.301C706.901 975.116 708.055 976.426 708.618 978.244C709.144 979.946 708.398 982.055 706.363 984.564L716.329 991.666L712.573 993.817L702.939 987.149C701.961 987.733 700.944 988.189 699.887 988.516C696.805 989.469 693.521 989.355 690.037 988.186C686.541 987.021 683.629 985.28 681.306 982.976C678.983 980.672 677.466 978.414 676.772 976.171C675.807 973.051 676.254 970.342 678.093 968.064C679.943 965.782 683.607 963.787 689.1 962.089L695.829 960.007L693.6 952.8L666.887 961.063L665.228 955.699L707.529 942.615ZM702.676 986.665L691.432 1001.56L686.354 998.381L700.77 980.502L702.676 986.665ZM732.232 934.975L733.891 940.339L722.442 943.88L735.736 986.865L734.344 987.295L728.192 983.435L716.524 945.71L708.092 948.318L706.433 942.954L732.232 934.975ZM792.724 902.016L795.394 906.955L784.816 912.672L806.21 952.254L804.584 953.133L798.285 950.647L790.95 937.077L778.401 943.86C781.17 950.601 782.054 954.25 781.033 954.802C780.177 955.264 777.209 954.399 772.133 952.188C767.063 949.988 764.188 948.244 763.501 946.974C763.148 946.32 763.426 945.756 764.328 945.269L770.348 942.015C770.134 940.059 769.44 937.612 768.253 934.649C767.444 935.423 766.286 936.203 764.802 937.005C762.415 938.295 759.43 938.59 755.863 937.894C752.29 937.187 749.893 935.705 748.681 933.461C747.827 931.882 747.56 930.309 747.848 928.742C748.136 927.175 749.004 926 750.441 925.223C754.406 923.08 758.752 923.002 763.507 924.987C768.249 926.98 771.928 930.407 774.546 935.251C775.233 936.521 775.813 937.711 776.26 938.819L788.357 932.281L779.354 915.624L768.61 921.432L762.391 918.411L792.724 902.016ZM767.387 932.877C765.757 929.862 763.916 927.789 761.856 926.646C759.804 925.516 757.857 925.433 756.028 926.422C754.936 927.012 754.265 927.927 753.978 929.156C753.691 930.385 753.868 931.563 754.484 932.703C755.395 934.388 756.794 935.473 758.662 935.921C760.549 936.374 762.507 936.052 764.549 934.948C765.522 934.422 766.466 933.727 767.387 932.877ZM825.295 875.576L828.858 879.915L820.098 887.11L829.027 896.75L819.776 904.347C816.408 907.113 814.356 909.741 813.601 912.266C812.847 914.77 813.408 917.155 815.267 919.418C816.654 921.108 818.621 922.078 821.147 922.326C823.692 922.576 826.028 921.827 828.146 920.088C829.365 919.087 830.269 917.996 830.825 916.823C829.892 916.559 828.989 915.885 828.099 914.801C827.397 913.945 827.171 912.821 827.406 911.405C827.649 910.001 828.372 908.796 829.571 907.811C831.302 906.39 833.132 905.726 835.07 905.81C836.998 905.904 838.561 906.68 839.769 908.151C840.9 909.527 841.006 911.763 840.07 914.854L851.981 917.663L849.317 921.074L837.876 918.541C837.192 919.452 836.423 920.259 835.567 920.961C833.075 923.008 829.991 924.143 826.324 924.378C822.647 924.621 819.293 924.11 816.272 922.854C813.25 921.599 810.992 920.082 809.502 918.268C807.429 915.744 806.819 913.066 807.66 910.263C808.511 907.45 811.15 904.219 815.593 900.571L821.037 896.1L816.249 890.27L794.639 908.016L791.076 903.677L825.295 875.576ZM837.45 918.192L832.669 936.229L826.767 935.209L833.356 913.207L837.45 918.192ZM845.278 859.167L848.841 863.505L839.58 871.111L868.134 905.883L867.008 906.807L859.853 905.559L834.792 875.042L827.972 880.643L824.409 876.305L845.278 859.167ZM872.903 827.96L877.049 831.746L868.94 840.624L902.162 870.968L901.607 871.576L893.999 871.92L885.589 864.239C885.412 867.294 884.109 870.142 881.669 872.813C879.913 874.736 877.443 876.099 874.259 876.884C871.075 877.668 866 878.022 859.013 877.928L858.425 877.39C860.932 874.106 862.21 871.106 862.297 868.389C862.365 865.673 861.233 863.25 858.891 861.111C857.048 859.428 854.845 858.658 852.303 858.84L843.502 868.476L839.356 864.689L872.903 827.96ZM864.753 845.208L853.904 857.086C858.347 856.044 861.973 856.797 864.783 859.364C867.075 861.457 868.313 863.903 868.487 866.694C868.68 869.485 867.799 872.61 865.836 876.08C868.367 875.851 870.496 875.421 872.234 874.759C873.972 874.117 875.318 873.263 876.301 872.187C878.076 870.244 879.167 867.969 879.584 865.371C879.991 862.763 879.953 860.864 879.432 859.675C878.91 858.485 877.378 856.74 874.847 854.428L864.753 845.208ZM902.735 784.908L907.527 787.834L898.364 802.842C900.894 803.281 903.444 804.284 905.978 805.831C908.765 807.533 911.019 809.747 912.732 812.484C914.451 815.21 915.625 818.441 916.261 822.165C919.856 821.483 923.854 820.398 928.275 818.906C932.689 817.427 937.512 815.534 942.782 813.248L943.491 814.883C938.902 816.936 934.512 818.714 930.301 820.223C926.098 821.721 922.061 822.971 918.216 823.96C910.517 825.901 905.619 826.231 903.523 824.951C901.461 823.692 901.269 821.677 902.963 818.901C903.772 817.576 905.037 816.151 906.764 814.644C905.809 812.116 904.384 810.281 902.495 809.128C901.009 808.221 898.765 807.546 895.761 807.104L886.429 822.389L881.638 819.463L902.735 784.908ZM916.209 762.839L921.001 765.765L914.756 775.993L953.158 799.44L952.399 800.683L945.231 801.857L911.528 781.28L906.929 788.813L902.137 785.887L916.209 762.839ZM935.156 718.137L940.323 720.333L935.641 731.35L977.05 748.949L976.395 750.489L970.01 752.747L946.983 742.96L942.126 754.386C946.833 752.559 950.567 752.225 953.325 753.398C955.871 754.48 957.636 756.227 958.612 758.621C959.571 761.023 959.508 763.519 958.404 766.114C957.042 769.319 953.831 771.664 948.776 773.138C943.734 774.617 937.404 775.123 929.806 774.68L929.559 772.845C937.089 772.76 942.595 771.948 946.045 770.422C949.506 768.902 951.654 767.161 952.488 765.198C953.106 763.745 953.165 762.363 952.674 761.069C952.176 759.757 951.204 758.802 949.75 758.184C948.658 757.719 947.179 757.575 945.316 757.751C943.457 757.914 939.294 759.326 932.837 761.993L941.853 740.779L933.196 737.1L918.099 772.622L912.932 770.426L935.156 718.137ZM952.008 650.195L957.507 651.327L955.082 663.104L999.152 672.177L998.78 673.987L992.944 677.237L968.503 672.205L966.527 681.802C965.676 685.939 965.77 688.962 966.796 690.868C967.837 692.777 969.548 693.97 971.953 694.465C974.504 694.99 977.492 694.531 980.923 693.06C984.337 691.599 988.947 689.021 994.753 685.311L995.711 686.886C987.969 692.099 982.196 695.375 978.39 696.727C974.588 698.066 970.981 698.385 967.571 697.682C964.689 697.089 962.531 695.791 961.108 693.803C959.685 691.815 959.389 688.833 960.205 684.868L963.044 671.082L953.831 669.185L947.716 698.886L942.217 697.754L952.008 650.195ZM927.907 687.823L920.815 688.939L921.637 684.947C922.105 682.674 922.932 680.598 924.107 678.704C925.298 676.8 926.806 675.168 928.621 673.778C930.437 672.388 933.482 670.713 937.728 668.763L950.207 663.024L949.713 665.43L939.853 670.22C936.623 671.788 934.155 673.47 932.469 675.3C930.773 677.114 929.613 679.534 928.993 682.548L927.907 687.823Z" fill="#EE8033"/>
<path d="M211.812 609.859C220.106 609.859 226.829 603.136 226.829 594.842C226.829 586.549 220.106 579.825 211.812 579.825C203.519 579.825 196.796 586.549 196.796 594.842C196.796 603.136 203.519 609.859 211.812 609.859Z" fill="#EE8033"/>
<path d="M982.084 609.859C990.377 609.859 997.1 603.136 997.1 594.842C997.1 586.549 990.377 579.825 982.084 579.825C973.79 579.825 967.067 586.549 967.067 594.842C967.067 603.136 973.79 609.859 982.084 609.859Z" fill="#EE8033"/>
<path fill-rule="evenodd" clip-rule="evenodd" d="M594.842 123.985C553.68 123.669 528.24 128.969 514.46 113.776C500.68 98.5825 509.16 78.7955 493.967 60.7754C565.694 56.5353 588.219 95.3871 594.842 123.985Z" fill="#F9E641" stroke="#EE8033" stroke-width="0.282668" stroke-miterlimit="22.9256" stroke-linejoin="round"/>
<path fill-rule="evenodd" clip-rule="evenodd" d="M594.842 123.985C563.483 123.661 548.38 127.203 533.893 110.949C519.407 94.6956 526.528 58.0578 510.981 42.1577C565.748 43.9247 589.367 79.149 594.842 123.985Z" fill="#F9E641" stroke="#EE8033" stroke-width="0.282668" stroke-miterlimit="22.9256" stroke-linejoin="round"/>
<path fill-rule="evenodd" clip-rule="evenodd" d="M594.842 123.985C576.294 120.843 556.507 115.896 546.593 96.9442C536.68 77.9926 544.376 45.5819 543.787 22.6152C575.234 34.6284 598.2 53.7089 594.842 123.985Z" fill="#F9E641" stroke="#EE8033" stroke-width="0.282668" stroke-miterlimit="22.9256" stroke-linejoin="round"/>
<path fill-rule="evenodd" clip-rule="evenodd" d="M594.842 123.985C636.004 123.669 661.444 128.969 675.224 113.776C689.004 98.5825 680.524 78.7955 695.717 60.7754C623.991 56.5353 601.465 95.3871 594.842 123.985Z" fill="#F9E641" stroke="#EE8033" stroke-width="0.282668" stroke-miterlimit="22.9256" stroke-linejoin="round"/>
<path fill-rule="evenodd" clip-rule="evenodd" d="M594.842 123.985C626.201 123.661 641.304 127.203 655.791 110.949C670.277 94.6956 663.156 58.0578 678.703 42.1577C623.936 43.9247 600.317 79.149 594.842 123.985Z" fill="#F9E641" stroke="#EE8033" stroke-width="0.282668" stroke-miterlimit="22.9256" stroke-linejoin="round"/>
<path fill-rule="evenodd" clip-rule="evenodd" d="M594.842 123.985C613.39 120.843 633.177 115.896 643.091 96.9442C653.004 77.9926 645.308 45.5819 645.897 22.6152C614.45 34.6284 591.484 53.7089 594.842 123.985Z" fill="#F9E641" stroke="#EE8033" stroke-width="0.282668" stroke-miterlimit="22.9256" stroke-linejoin="round"/>
<path fill-rule="evenodd" clip-rule="evenodd" d="M594.844 123.985C574.735 108.668 564.103 97.346 563.573 69.6089C563.043 41.8718 583.184 25.9721 594.844 0.141357C606.504 25.9721 626.644 41.8718 626.114 69.6089C625.584 97.346 614.952 108.668 594.844 123.985Z" fill="#F9E641" stroke="#EE8033" stroke-width="0.282668" stroke-miterlimit="22.9256" stroke-linejoin="round"/>
<path d="M594.844 1065.7C854.891 1065.7 1065.7 854.889 1065.7 594.842C1065.7 334.795 854.891 123.985 594.844 123.985C334.796 123.985 123.986 334.795 123.986 594.842C123.986 854.889 334.796 1065.7 594.844 1065.7Z" stroke="#EE8033" stroke-width="0.282668" stroke-miterlimit="22.9256"/>
<path fill-rule="evenodd" clip-rule="evenodd" d="M414.606 159.712C376.457 175.173 354.981 189.805 336.436 181.041C317.89 172.278 318.153 150.752 297.22 139.918C361.865 108.552 397.544 135.826 414.606 159.712Z" fill="#F9E641" stroke="#EE8033" stroke-width="0.282668" stroke-miterlimit="22.9256" stroke-linejoin="round"/>
<path fill-rule="evenodd" clip-rule="evenodd" d="M414.606 159.712C385.511 171.414 372.912 180.466 353.308 170.993C333.704 161.521 326.263 124.947 305.815 116.206C357.089 96.8803 392.39 120.385 414.606 159.712Z" fill="#F9E641" stroke="#EE8033" stroke-width="0.282668" stroke-miterlimit="22.9256" stroke-linejoin="round"/>
<path fill-rule="evenodd" clip-rule="evenodd" d="M414.606 159.712C396.267 163.908 376.093 166.91 359.682 153.194C343.271 139.479 337.978 106.59 328.645 85.5971C362.295 84.6618 390.815 93.5008 414.606 159.712Z" fill="#F9E641" stroke="#EE8033" stroke-width="0.282668" stroke-miterlimit="22.9256" stroke-linejoin="round"/>
<path fill-rule="evenodd" clip-rule="evenodd" d="M414.606 159.712C452.514 143.669 478.046 138.83 484.963 119.52C491.88 100.21 476.473 85.1738 483.614 62.7113C415.724 86.2426 409.781 130.757 414.606 159.712Z" fill="#F9E641" stroke="#EE8033" stroke-width="0.282668" stroke-miterlimit="22.9256" stroke-linejoin="round"/>
<path fill-rule="evenodd" clip-rule="evenodd" d="M414.606 159.712C443.454 147.413 458.763 144.905 465.927 124.345C473.091 103.785 452.491 72.6612 460.77 52.022C410.847 74.613 402.506 116.194 414.606 159.712Z" fill="#F9E641" stroke="#EE8033" stroke-width="0.282668" stroke-miterlimit="22.9256" stroke-linejoin="round"/>
<path fill-rule="evenodd" clip-rule="evenodd" d="M414.606 159.712C430.54 149.711 446.928 137.569 448.834 116.266C450.74 94.9634 431.228 67.965 422.982 46.5211C398.527 69.6539 384.61 96.071 414.606 159.712Z" fill="#F9E641" stroke="#EE8033" stroke-width="0.282668" stroke-miterlimit="22.9256" stroke-linejoin="round"/>
<path fill-rule="evenodd" clip-rule="evenodd" d="M414.608 159.712C390.168 153.256 376.013 146.865 364.909 121.442C353.805 96.0189 366.327 73.6223 367.215 45.2955C387.872 64.6978 412.564 71.6801 422.689 97.5088C432.814 123.337 427.324 137.865 414.608 159.712Z" fill="#F9E641" stroke="#EE8033" stroke-width="0.282668" stroke-miterlimit="22.9256" stroke-linejoin="round"/>
<path fill-rule="evenodd" clip-rule="evenodd" d="M261.895 261.896C232.566 290.779 218.324 312.515 197.837 311.516C177.35 310.517 169.355 290.529 145.87 288.53C193.59 234.813 236.991 246.357 261.895 261.896Z" fill="#F9E641" stroke="#EE8033" stroke-width="0.282668" stroke-miterlimit="22.9256" stroke-linejoin="round"/>
<path fill-rule="evenodd" clip-rule="evenodd" d="M261.895 261.896C239.492 283.841 231.317 297.025 209.58 295.776C187.844 294.526 166.973 263.584 144.736 263.334C184.712 225.858 226.32 234.064 261.895 261.896Z" fill="#F9E641" stroke="#EE8033" stroke-width="0.282668" stroke-miterlimit="22.9256" stroke-linejoin="round"/>
<path fill-rule="evenodd" clip-rule="evenodd" d="M261.895 261.896C246.558 272.79 229.068 283.283 208.657 276.892C188.247 270.501 170.771 242.142 154.115 226.318C184.845 212.577 214.577 209.829 261.895 261.896Z" fill="#F9E641" stroke="#EE8033" stroke-width="0.282668" stroke-miterlimit="22.9256" stroke-linejoin="round"/>
<path fill-rule="evenodd" clip-rule="evenodd" d="M261.895 261.896C290.778 232.567 312.514 218.325 311.515 197.838C310.516 177.351 290.528 169.356 288.529 145.87C234.812 193.591 246.357 236.991 261.895 261.896Z" fill="#F9E641" stroke="#EE8033" stroke-width="0.282668" stroke-miterlimit="22.9256" stroke-linejoin="round"/>
<path fill-rule="evenodd" clip-rule="evenodd" d="M261.895 261.896C283.84 239.493 297.025 231.318 295.775 209.581C294.526 187.845 263.583 166.973 263.333 144.737C225.857 184.713 234.063 226.321 261.895 261.896Z" fill="#F9E641" stroke="#EE8033" stroke-width="0.282668" stroke-miterlimit="22.9256" stroke-linejoin="round"/>
<path fill-rule="evenodd" clip-rule="evenodd" d="M261.895 261.896C272.789 246.559 283.282 229.069 276.891 208.658C270.501 188.248 242.141 170.772 226.317 154.116C212.576 184.846 209.828 214.578 261.895 261.896Z" fill="#F9E641" stroke="#EE8033" stroke-width="0.282668" stroke-miterlimit="22.9256" stroke-linejoin="round"/>
<path fill-rule="evenodd" clip-rule="evenodd" d="M261.897 261.895C236.847 265.283 221.323 264.795 201.336 245.557C181.348 226.318 184.346 200.834 174.326 174.324C200.836 184.344 226.32 181.346 245.558 201.334C264.797 221.322 265.285 236.845 261.897 261.895Z" fill="#F9E641" stroke="#EE8033" stroke-width="0.282668" stroke-miterlimit="22.9256" stroke-linejoin="round"/>
<path fill-rule="evenodd" clip-rule="evenodd" d="M159.711 414.608C143.668 452.515 138.829 478.047 119.519 484.964C100.209 491.881 85.173 476.474 62.7104 483.615C86.2418 415.725 130.756 409.782 159.711 414.608Z" fill="#F9E641" stroke="#EE8033" stroke-width="0.282668" stroke-miterlimit="22.9256" stroke-linejoin="round"/>
<path fill-rule="evenodd" clip-rule="evenodd" d="M159.711 414.608C147.412 443.455 144.904 458.764 124.344 465.928C103.784 473.092 72.6604 452.492 52.0211 460.771C74.6122 410.849 116.194 402.508 159.711 414.608Z" fill="#F9E641" stroke="#EE8033" stroke-width="0.282668" stroke-miterlimit="22.9256" stroke-linejoin="round"/>
<path fill-rule="evenodd" clip-rule="evenodd" d="M159.711 414.608C149.711 430.541 137.568 446.929 116.265 448.835C94.9626 450.742 67.9641 431.229 46.5203 422.984C69.653 398.528 96.0701 384.612 159.711 414.608Z" fill="#F9E641" stroke="#EE8033" stroke-width="0.282668" stroke-miterlimit="22.9256" stroke-linejoin="round"/>
<path fill-rule="evenodd" clip-rule="evenodd" d="M159.711 414.608C175.172 376.458 189.804 354.982 181.041 336.437C172.278 317.892 150.751 318.154 139.917 297.221C108.551 361.866 135.825 397.545 159.711 414.608Z" fill="#F9E641" stroke="#EE8033" stroke-width="0.282668" stroke-miterlimit="22.9256" stroke-linejoin="round"/>
<path fill-rule="evenodd" clip-rule="evenodd" d="M159.712 414.608C171.413 385.512 180.465 372.913 170.992 353.31C161.52 333.706 124.946 326.264 116.205 305.816C96.8794 357.091 120.384 392.391 159.712 414.608Z" fill="#F9E641" stroke="#EE8033" stroke-width="0.282668" stroke-miterlimit="22.9256" stroke-linejoin="round"/>
<path fill-rule="evenodd" clip-rule="evenodd" d="M159.712 414.608C163.907 396.269 166.909 376.095 153.193 359.683C139.478 343.272 106.589 337.979 85.5962 328.646C84.661 362.296 93.4999 390.817 159.712 414.608Z" fill="#F9E641" stroke="#EE8033" stroke-width="0.282668" stroke-miterlimit="22.9256" stroke-linejoin="round"/>
<path fill-rule="evenodd" clip-rule="evenodd" d="M159.712 414.606C137.866 427.322 123.337 432.812 97.5091 422.687C71.6805 412.562 64.6982 387.87 45.2959 367.213C73.6227 366.326 96.0193 353.803 121.442 364.907C146.865 376.011 153.256 390.166 159.712 414.606Z" fill="#F9E641" stroke="#EE8033" stroke-width="0.282668" stroke-miterlimit="22.9256" stroke-linejoin="round"/>
<path fill-rule="evenodd" clip-rule="evenodd" d="M123.985 594.844C123.669 636.006 128.969 661.446 113.776 675.226C98.5825 689.006 78.7955 680.526 60.7754 695.719C56.5353 623.992 95.3871 601.467 123.985 594.844Z" fill="#F9E641" stroke="#EE8033" stroke-width="0.282668" stroke-miterlimit="22.9256" stroke-linejoin="round"/>
<path fill-rule="evenodd" clip-rule="evenodd" d="M123.985 594.844C123.661 626.202 127.203 641.306 110.949 655.793C94.6956 670.279 58.0578 663.158 42.1577 678.704C43.9247 623.938 79.149 600.319 123.985 594.844Z" fill="#F9E641" stroke="#EE8033" stroke-width="0.282668" stroke-miterlimit="22.9256" stroke-linejoin="round"/>
<path fill-rule="evenodd" clip-rule="evenodd" d="M123.985 594.844C120.843 613.392 115.896 633.179 96.9442 643.092C77.9926 653.006 45.5819 645.31 22.6152 645.899C34.6284 614.452 53.7089 591.486 123.985 594.844Z" fill="#F9E641" stroke="#EE8033" stroke-width="0.282668" stroke-miterlimit="22.9256" stroke-linejoin="round"/>
<path fill-rule="evenodd" clip-rule="evenodd" d="M123.985 594.844C123.669 553.682 128.969 528.242 113.776 514.461C98.5825 500.681 78.7955 509.161 60.7754 493.968C56.5353 565.695 95.3871 588.221 123.985 594.844Z" fill="#F9E641" stroke="#EE8033" stroke-width="0.282668" stroke-miterlimit="22.9256" stroke-linejoin="round"/>
<path fill-rule="evenodd" clip-rule="evenodd" d="M123.985 594.844C123.661 563.485 127.203 548.382 110.949 533.895C94.6956 519.408 58.0578 526.53 42.1577 510.983C43.9247 565.75 79.149 589.369 123.985 594.844Z" fill="#F9E641" stroke="#EE8033" stroke-width="0.282668" stroke-miterlimit="22.9256" stroke-linejoin="round"/>
<path fill-rule="evenodd" clip-rule="evenodd" d="M123.985 594.844C120.843 576.295 115.896 556.509 96.9442 546.595C77.9926 536.682 45.5819 544.377 22.6152 543.789C34.6284 575.235 53.7089 598.202 123.985 594.844Z" fill="#F9E641" stroke="#EE8033" stroke-width="0.282668" stroke-miterlimit="22.9256" stroke-linejoin="round"/>
<path fill-rule="evenodd" clip-rule="evenodd" d="M123.985 594.842C108.668 614.951 97.346 625.582 69.6089 626.112C41.8718 626.642 25.9721 606.502 0.141357 594.842C25.9721 583.182 41.8718 563.042 69.6089 563.572C97.346 564.102 108.668 574.733 123.985 594.842Z" fill="#F9E641" stroke="#EE8033" stroke-width="0.282668" stroke-miterlimit="22.9256" stroke-linejoin="round"/>
<path fill-rule="evenodd" clip-rule="evenodd" d="M775.079 159.714C813.229 175.175 834.705 189.806 853.25 181.043C871.795 172.28 871.533 150.754 892.466 139.92C827.821 108.554 792.142 135.828 775.079 159.714Z" fill="#F9E641" stroke="#EE8033" stroke-width="0.282668" stroke-miterlimit="22.9256" stroke-linejoin="round"/>
<path fill-rule="evenodd" clip-rule="evenodd" d="M775.079 159.714C804.175 171.416 816.774 180.468 836.377 170.995C855.981 161.522 863.423 124.948 883.871 116.208C832.596 96.882 797.296 120.387 775.079 159.714Z" fill="#F9E641" stroke="#EE8033" stroke-width="0.282668" stroke-miterlimit="22.9256" stroke-linejoin="round"/>
<path fill-rule="evenodd" clip-rule="evenodd" d="M775.079 159.714C793.418 163.909 813.592 166.911 830.004 153.196C846.415 139.481 851.708 106.592 861.041 85.5988C827.391 84.6636 798.87 93.5025 775.079 159.714Z" fill="#F9E641" stroke="#EE8033" stroke-width="0.282668" stroke-miterlimit="22.9256" stroke-linejoin="round"/>
<path fill-rule="evenodd" clip-rule="evenodd" d="M775.079 159.714C737.172 143.671 711.64 138.831 704.723 119.521C697.806 100.211 713.213 85.1755 706.072 62.713C773.962 86.2443 779.904 130.759 775.079 159.714Z" fill="#F9E641" stroke="#EE8033" stroke-width="0.282668" stroke-miterlimit="22.9256" stroke-linejoin="round"/>
<path fill-rule="evenodd" clip-rule="evenodd" d="M775.079 159.714C746.232 147.415 730.923 144.907 723.759 124.347C716.595 103.787 737.195 72.6629 728.916 52.0237C778.838 74.6148 787.179 116.196 775.079 159.714Z" fill="#F9E641" stroke="#EE8033" stroke-width="0.282668" stroke-miterlimit="22.9256" stroke-linejoin="round"/>
<path fill-rule="evenodd" clip-rule="evenodd" d="M775.079 159.714C759.145 149.713 742.758 137.571 740.852 116.268C738.945 94.9652 758.458 67.9668 766.703 46.5229C791.159 69.6557 805.075 96.0728 775.079 159.714Z" fill="#F9E641" stroke="#EE8033" stroke-width="0.282668" stroke-miterlimit="22.9256" stroke-linejoin="round"/>
<path fill-rule="evenodd" clip-rule="evenodd" d="M775.078 159.714C799.518 153.258 813.672 146.866 824.777 121.443C835.881 96.0206 823.358 73.624 822.471 45.2972C801.813 64.6995 777.122 71.6818 766.997 97.5105C756.872 123.339 762.361 137.867 775.078 159.714Z" fill="#F9E641" stroke="#EE8033" stroke-width="0.282668" stroke-miterlimit="22.9256" stroke-linejoin="round"/>
<path fill-rule="evenodd" clip-rule="evenodd" d="M927.791 261.898C957.12 290.781 971.361 312.517 991.848 311.518C1012.34 310.519 1020.33 290.531 1043.82 288.532C996.096 234.815 952.695 246.359 927.791 261.898Z" fill="#F9E641" stroke="#EE8033" stroke-width="0.282668" stroke-miterlimit="22.9256" stroke-linejoin="round"/>
<path fill-rule="evenodd" clip-rule="evenodd" d="M927.791 261.898C950.193 283.843 958.369 297.027 980.106 295.778C1001.84 294.528 1022.71 263.585 1044.95 263.336C1004.97 225.859 963.365 234.066 927.791 261.898Z" fill="#F9E641" stroke="#EE8033" stroke-width="0.282668" stroke-miterlimit="22.9256" stroke-linejoin="round"/>
<path fill-rule="evenodd" clip-rule="evenodd" d="M927.791 261.898C943.128 272.792 960.617 283.285 981.028 276.894C1001.44 270.503 1018.91 242.144 1035.57 226.32C1004.84 212.578 975.109 209.831 927.791 261.898Z" fill="#F9E641" stroke="#EE8033" stroke-width="0.282668" stroke-miterlimit="22.9256" stroke-linejoin="round"/>
<path fill-rule="evenodd" clip-rule="evenodd" d="M927.79 261.898C898.908 232.569 877.171 218.327 878.17 197.84C879.17 177.353 899.158 169.358 901.157 145.872C954.873 193.593 943.329 236.993 927.79 261.898Z" fill="#F9E641" stroke="#EE8033" stroke-width="0.282668" stroke-miterlimit="22.9256" stroke-linejoin="round"/>
<path fill-rule="evenodd" clip-rule="evenodd" d="M927.79 261.898C905.845 239.495 892.661 231.32 893.911 209.583C895.16 187.846 926.103 166.975 926.352 144.739C963.829 184.714 955.623 226.323 927.79 261.898Z" fill="#F9E641" stroke="#EE8033" stroke-width="0.282668" stroke-miterlimit="22.9256" stroke-linejoin="round"/>
<path fill-rule="evenodd" clip-rule="evenodd" d="M927.79 261.898C916.897 246.56 906.403 229.071 912.794 208.66C919.185 188.25 947.545 170.774 963.368 154.117C977.11 184.848 979.858 214.58 927.79 261.898Z" fill="#F9E641" stroke="#EE8033" stroke-width="0.282668" stroke-miterlimit="22.9256" stroke-linejoin="round"/>
<path fill-rule="evenodd" clip-rule="evenodd" d="M927.789 261.897C952.839 265.285 968.362 264.797 988.35 245.558C1008.34 226.32 1005.34 200.836 1015.36 174.326C988.85 184.346 963.366 181.348 944.128 201.336C924.889 221.323 924.401 236.847 927.789 261.897Z" fill="#F9E641" stroke="#EE8033" stroke-width="0.282668" stroke-miterlimit="22.9256" stroke-linejoin="round"/>
<path fill-rule="evenodd" clip-rule="evenodd" d="M1029.97 414.609C1046.02 452.517 1050.86 478.049 1070.17 484.966C1089.48 491.883 1104.51 476.476 1126.98 483.616C1103.44 415.727 1058.93 409.784 1029.97 414.609Z" fill="#F9E641" stroke="#EE8033" stroke-width="0.282668" stroke-miterlimit="22.9256" stroke-linejoin="round"/>
<path fill-rule="evenodd" clip-rule="evenodd" d="M1029.97 414.609C1042.27 443.457 1044.78 458.766 1065.34 465.93C1085.9 473.094 1117.03 452.494 1137.66 460.773C1115.07 410.85 1073.49 402.509 1029.97 414.609Z" fill="#F9E641" stroke="#EE8033" stroke-width="0.282668" stroke-miterlimit="22.9256" stroke-linejoin="round"/>
<path fill-rule="evenodd" clip-rule="evenodd" d="M1029.97 414.609C1039.97 430.543 1052.12 446.931 1073.42 448.837C1094.72 450.743 1121.72 431.23 1143.17 422.985C1120.03 398.53 1093.62 384.613 1029.97 414.609Z" fill="#F9E641" stroke="#EE8033" stroke-width="0.282668" stroke-miterlimit="22.9256" stroke-linejoin="round"/>
<path fill-rule="evenodd" clip-rule="evenodd" d="M1029.97 414.609C1014.51 376.459 999.882 354.984 1008.65 336.439C1017.41 317.893 1038.93 318.156 1049.77 297.223C1081.13 361.868 1053.86 397.546 1029.97 414.609Z" fill="#F9E641" stroke="#EE8033" stroke-width="0.282668" stroke-miterlimit="22.9256" stroke-linejoin="round"/>
<path fill-rule="evenodd" clip-rule="evenodd" d="M1029.97 414.609C1018.27 385.514 1009.22 372.915 1018.69 353.311C1028.17 333.707 1064.74 326.266 1073.48 305.818C1092.81 357.092 1069.3 392.393 1029.97 414.609Z" fill="#F9E641" stroke="#EE8033" stroke-width="0.282668" stroke-miterlimit="22.9256" stroke-linejoin="round"/>
<path fill-rule="evenodd" clip-rule="evenodd" d="M1029.97 414.609C1025.78 396.27 1022.78 376.096 1036.49 359.685C1050.21 343.274 1083.1 337.981 1104.09 328.648C1105.02 362.298 1096.19 390.818 1029.97 414.609Z" fill="#F9E641" stroke="#EE8033" stroke-width="0.282668" stroke-miterlimit="22.9256" stroke-linejoin="round"/>
<path fill-rule="evenodd" clip-rule="evenodd" d="M1029.97 414.608C1051.82 427.324 1066.35 432.813 1092.18 422.689C1118.01 412.564 1124.99 387.872 1144.39 367.215C1116.06 366.327 1093.67 353.805 1068.24 364.909C1042.82 376.013 1036.43 390.168 1029.97 414.608Z" fill="#F9E641" stroke="#EE8033" stroke-width="0.282668" stroke-miterlimit="22.9256" stroke-linejoin="round"/>
<path fill-rule="evenodd" clip-rule="evenodd" d="M775.079 1029.97C813.229 1014.51 834.705 999.877 853.25 1008.64C871.795 1017.4 871.533 1038.93 892.466 1049.76C827.821 1081.13 792.142 1053.86 775.079 1029.97Z" fill="#F9E641" stroke="#EE8033" stroke-width="0.282668" stroke-miterlimit="22.9256" stroke-linejoin="round"/>
<path fill-rule="evenodd" clip-rule="evenodd" d="M775.079 1029.97C804.175 1018.27 816.774 1009.22 836.377 1018.69C855.981 1028.16 863.423 1064.74 883.871 1073.48C832.596 1092.8 797.296 1069.3 775.079 1029.97Z" fill="#F9E641" stroke="#EE8033" stroke-width="0.282668" stroke-miterlimit="22.9256" stroke-linejoin="round"/>
<path fill-rule="evenodd" clip-rule="evenodd" d="M775.079 1029.97C793.418 1025.77 813.592 1022.77 830.004 1036.49C846.415 1050.2 851.708 1083.09 861.041 1104.08C827.391 1105.02 798.87 1096.18 775.079 1029.97Z" fill="#F9E641" stroke="#EE8033" stroke-width="0.282668" stroke-miterlimit="22.9256" stroke-linejoin="round"/>
<path fill-rule="evenodd" clip-rule="evenodd" d="M775.079 1029.97C737.172 1046.01 711.64 1050.85 704.723 1070.16C697.806 1089.47 713.213 1104.51 706.072 1126.97C773.962 1103.44 779.904 1058.92 775.079 1029.97Z" fill="#F9E641" stroke="#EE8033" stroke-width="0.282668" stroke-miterlimit="22.9256" stroke-linejoin="round"/>
<path fill-rule="evenodd" clip-rule="evenodd" d="M775.079 1029.97C746.232 1042.27 730.923 1044.78 723.759 1065.34C716.595 1085.9 737.195 1117.02 728.916 1137.66C778.838 1115.07 787.179 1073.49 775.079 1029.97Z" fill="#F9E641" stroke="#EE8033" stroke-width="0.282668" stroke-miterlimit="22.9256" stroke-linejoin="round"/>
<path fill-rule="evenodd" clip-rule="evenodd" d="M775.079 1029.97C759.145 1039.97 742.758 1052.11 740.852 1073.42C738.945 1094.72 758.458 1121.72 766.703 1143.16C791.159 1120.03 805.075 1093.61 775.079 1029.97Z" fill="#F9E641" stroke="#EE8033" stroke-width="0.282668" stroke-miterlimit="22.9256" stroke-linejoin="round"/>
<path fill-rule="evenodd" clip-rule="evenodd" d="M775.078 1029.97C799.518 1036.43 813.672 1042.82 824.777 1068.24C835.881 1093.66 823.358 1116.06 822.471 1144.39C801.813 1124.98 777.122 1118 766.997 1092.17C756.872 1066.35 762.361 1051.82 775.078 1029.97Z" fill="#F9E641" stroke="#EE8033" stroke-width="0.282668" stroke-miterlimit="22.9256" stroke-linejoin="round"/>
<path fill-rule="evenodd" clip-rule="evenodd" d="M927.791 927.786C957.12 898.903 971.361 877.167 991.848 878.166C1012.34 879.165 1020.33 899.153 1043.82 901.152C996.096 954.869 952.695 943.324 927.791 927.786Z" fill="#F9E641" stroke="#EE8033" stroke-width="0.282668" stroke-miterlimit="22.9256" stroke-linejoin="round"/>
<path fill-rule="evenodd" clip-rule="evenodd" d="M927.791 927.786C950.193 905.841 958.369 892.657 980.106 893.906C1001.84 895.156 1022.71 926.098 1044.95 926.348C1004.97 963.824 963.365 955.618 927.791 927.786Z" fill="#F9E641" stroke="#EE8033" stroke-width="0.282668" stroke-miterlimit="22.9256" stroke-linejoin="round"/>
<path fill-rule="evenodd" clip-rule="evenodd" d="M927.791 927.786C943.128 916.892 960.617 906.399 981.028 912.79C1001.44 919.181 1018.91 947.54 1035.57 963.364C1004.84 977.105 975.109 979.853 927.791 927.786Z" fill="#F9E641" stroke="#EE8033" stroke-width="0.282668" stroke-miterlimit="22.9256" stroke-linejoin="round"/>
<path fill-rule="evenodd" clip-rule="evenodd" d="M927.79 927.786C898.908 957.115 877.171 971.357 878.17 991.844C879.17 1012.33 899.158 1020.33 901.157 1043.81C954.873 996.091 943.329 952.691 927.79 927.786Z" fill="#F9E641" stroke="#EE8033" stroke-width="0.282668" stroke-miterlimit="22.9256" stroke-linejoin="round"/>
<path fill-rule="evenodd" clip-rule="evenodd" d="M927.79 927.786C905.845 950.189 892.661 958.364 893.911 980.101C895.16 1001.84 926.103 1022.71 926.352 1044.94C963.829 1004.97 955.623 963.361 927.79 927.786Z" fill="#F9E641" stroke="#EE8033" stroke-width="0.282668" stroke-miterlimit="22.9256" stroke-linejoin="round"/>
<path fill-rule="evenodd" clip-rule="evenodd" d="M927.79 927.786C916.897 943.123 906.403 960.613 912.794 981.024C919.185 1001.43 947.545 1018.91 963.368 1035.57C977.11 1004.84 979.858 975.104 927.79 927.786Z" fill="#F9E641" stroke="#EE8033" stroke-width="0.282668" stroke-miterlimit="22.9256" stroke-linejoin="round"/>
<path fill-rule="evenodd" clip-rule="evenodd" d="M927.789 927.787C952.839 924.399 968.362 924.887 988.35 944.125C1008.34 963.364 1005.34 988.848 1015.36 1015.36C988.85 1005.34 963.366 1008.34 944.128 988.348C924.889 968.36 924.401 952.837 927.789 927.787Z" fill="#F9E641" stroke="#EE8033" stroke-width="0.282668" stroke-miterlimit="22.9256" stroke-linejoin="round"/>
<path fill-rule="evenodd" clip-rule="evenodd" d="M1029.97 775.074C1046.02 737.167 1050.86 711.635 1070.17 704.718C1089.48 697.801 1104.51 713.208 1126.98 706.067C1103.44 773.957 1058.93 779.899 1029.97 775.074Z" fill="#F9E641" stroke="#EE8033" stroke-width="0.282668" stroke-miterlimit="22.9256" stroke-linejoin="round"/>
<path fill-rule="evenodd" clip-rule="evenodd" d="M1029.97 775.074C1042.27 746.227 1044.78 730.918 1065.34 723.754C1085.9 716.59 1117.03 737.19 1137.66 728.911C1115.07 778.833 1073.49 787.174 1029.97 775.074Z" fill="#F9E641" stroke="#EE8033" stroke-width="0.282668" stroke-miterlimit="22.9256" stroke-linejoin="round"/>
<path fill-rule="evenodd" clip-rule="evenodd" d="M1029.97 775.074C1039.97 759.141 1052.12 742.753 1073.42 740.847C1094.72 738.94 1121.72 758.453 1143.17 766.698C1120.03 791.154 1093.62 805.071 1029.97 775.074Z" fill="#F9E641" stroke="#EE8033" stroke-width="0.282668" stroke-miterlimit="22.9256" stroke-linejoin="round"/>
<path fill-rule="evenodd" clip-rule="evenodd" d="M1029.97 775.074C1014.51 813.224 999.882 834.7 1008.65 853.245C1017.41 871.79 1038.93 871.528 1049.77 892.461C1081.13 827.816 1053.86 792.137 1029.97 775.074Z" fill="#F9E641" stroke="#EE8033" stroke-width="0.282668" stroke-miterlimit="22.9256" stroke-linejoin="round"/>
<path fill-rule="evenodd" clip-rule="evenodd" d="M1029.97 775.074C1018.27 804.17 1009.22 816.769 1018.69 836.372C1028.17 855.976 1064.74 863.418 1073.48 883.866C1092.81 832.591 1069.3 797.291 1029.97 775.074Z" fill="#F9E641" stroke="#EE8033" stroke-width="0.282668" stroke-miterlimit="22.9256" stroke-linejoin="round"/>
<path fill-rule="evenodd" clip-rule="evenodd" d="M1029.97 775.074C1025.78 793.413 1022.78 813.587 1036.49 829.999C1050.21 846.41 1083.1 851.703 1104.09 861.036C1105.02 827.386 1096.19 798.865 1029.97 775.074Z" fill="#F9E641" stroke="#EE8033" stroke-width="0.282668" stroke-miterlimit="22.9256" stroke-linejoin="round"/>
<path fill-rule="evenodd" clip-rule="evenodd" d="M1029.97 775.076C1051.82 762.36 1066.35 756.87 1092.18 766.995C1118.01 777.12 1124.99 801.812 1144.39 822.469C1116.06 823.356 1093.67 835.879 1068.24 824.775C1042.82 813.671 1036.43 799.516 1029.97 775.076Z" fill="#F9E641" stroke="#EE8033" stroke-width="0.282668" stroke-miterlimit="22.9256" stroke-linejoin="round"/>
<path fill-rule="evenodd" clip-rule="evenodd" d="M414.606 1029.97C376.456 1014.51 354.981 999.879 336.435 1008.64C317.89 1017.41 318.152 1038.93 297.22 1049.77C361.864 1081.13 397.543 1053.86 414.606 1029.97Z" fill="#F9E641" stroke="#EE8033" stroke-width="0.282668" stroke-miterlimit="22.9256" stroke-linejoin="round"/>
<path fill-rule="evenodd" clip-rule="evenodd" d="M414.606 1029.97C385.51 1018.27 372.912 1009.22 353.308 1018.69C333.704 1028.16 326.263 1064.74 305.815 1073.48C357.089 1092.8 392.39 1069.3 414.606 1029.97Z" fill="#F9E641" stroke="#EE8033" stroke-width="0.282668" stroke-miterlimit="22.9256" stroke-linejoin="round"/>
<path fill-rule="evenodd" clip-rule="evenodd" d="M414.606 1029.97C396.267 1025.78 376.093 1022.77 359.682 1036.49C343.27 1050.2 337.977 1083.09 328.644 1104.09C362.295 1105.02 390.815 1096.18 414.606 1029.97Z" fill="#F9E641" stroke="#EE8033" stroke-width="0.282668" stroke-miterlimit="22.9256" stroke-linejoin="round"/>
<path fill-rule="evenodd" clip-rule="evenodd" d="M414.606 1029.97C452.514 1046.02 478.046 1050.85 484.962 1070.16C491.88 1089.47 476.473 1104.51 483.613 1126.97C415.724 1103.44 409.781 1058.93 414.606 1029.97Z" fill="#F9E641" stroke="#EE8033" stroke-width="0.282668" stroke-miterlimit="22.9256" stroke-linejoin="round"/>
<path fill-rule="evenodd" clip-rule="evenodd" d="M414.606 1029.97C443.454 1042.27 458.763 1044.78 465.927 1065.34C473.09 1085.9 452.491 1117.02 460.769 1137.66C410.847 1115.07 402.506 1073.49 414.606 1029.97Z" fill="#F9E641" stroke="#EE8033" stroke-width="0.282668" stroke-miterlimit="22.9256" stroke-linejoin="round"/>
<path fill-rule="evenodd" clip-rule="evenodd" d="M414.606 1029.97C430.54 1039.97 446.927 1052.12 448.834 1073.42C450.74 1094.72 431.227 1121.72 422.982 1143.16C398.526 1120.03 384.61 1093.61 414.606 1029.97Z" fill="#F9E641" stroke="#EE8033" stroke-width="0.282668" stroke-miterlimit="22.9256" stroke-linejoin="round"/>
<path fill-rule="evenodd" clip-rule="evenodd" d="M414.607 1029.97C390.168 1036.43 376.013 1042.82 364.909 1068.24C353.805 1093.67 366.327 1116.06 367.215 1144.39C387.872 1124.99 412.564 1118 422.688 1092.18C432.813 1066.35 427.324 1051.82 414.607 1029.97Z" fill="#F9E641" stroke="#EE8033" stroke-width="0.282668" stroke-miterlimit="22.9256" stroke-linejoin="round"/>
<path fill-rule="evenodd" clip-rule="evenodd" d="M261.895 927.788C232.566 898.905 218.324 877.169 197.837 878.168C177.35 879.167 169.355 899.155 145.869 901.154C193.59 954.871 236.99 943.327 261.895 927.788Z" fill="#F9E641" stroke="#EE8033" stroke-width="0.282668" stroke-miterlimit="22.9256" stroke-linejoin="round"/>
<path fill-rule="evenodd" clip-rule="evenodd" d="M261.895 927.788C239.492 905.843 231.317 892.659 209.58 893.908C187.843 895.158 166.972 926.1 144.736 926.35C184.711 963.827 226.32 955.62 261.895 927.788Z" fill="#F9E641" stroke="#EE8033" stroke-width="0.282668" stroke-miterlimit="22.9256" stroke-linejoin="round"/>
<path fill-rule="evenodd" clip-rule="evenodd" d="M261.895 927.788C246.557 916.894 229.068 906.401 208.657 912.792C188.247 919.183 170.771 947.542 154.114 963.366C184.845 977.107 214.577 979.855 261.895 927.788Z" fill="#F9E641" stroke="#EE8033" stroke-width="0.282668" stroke-miterlimit="22.9256" stroke-linejoin="round"/>
<path fill-rule="evenodd" clip-rule="evenodd" d="M261.895 927.788C290.778 957.117 312.514 971.359 311.515 991.846C310.516 1012.33 290.528 1020.33 288.529 1043.81C234.812 996.093 246.356 952.693 261.895 927.788Z" fill="#F9E641" stroke="#EE8033" stroke-width="0.282668" stroke-miterlimit="22.9256" stroke-linejoin="round"/>
<path fill-rule="evenodd" clip-rule="evenodd" d="M261.895 927.788C283.84 950.191 297.024 958.366 295.775 980.103C294.525 1001.84 263.583 1022.71 263.333 1044.95C225.856 1004.97 234.063 963.363 261.895 927.788Z" fill="#F9E641" stroke="#EE8033" stroke-width="0.282668" stroke-miterlimit="22.9256" stroke-linejoin="round"/>
<path fill-rule="evenodd" clip-rule="evenodd" d="M261.895 927.788C272.789 943.126 283.282 960.615 276.891 981.026C270.5 1001.44 242.141 1018.91 226.317 1035.57C212.575 1004.84 209.828 975.106 261.895 927.788Z" fill="#F9E641" stroke="#EE8033" stroke-width="0.282668" stroke-miterlimit="22.9256" stroke-linejoin="round"/>
<path fill-rule="evenodd" clip-rule="evenodd" d="M261.896 927.789C236.846 924.401 221.323 924.889 201.335 944.127C181.347 963.366 184.346 988.85 174.325 1015.36C200.836 1005.34 226.32 1008.34 245.558 988.35C264.796 968.362 265.284 952.839 261.896 927.789Z" fill="#F9E641" stroke="#EE8033" stroke-width="0.282668" stroke-miterlimit="22.9256" stroke-linejoin="round"/>
<path fill-rule="evenodd" clip-rule="evenodd" d="M159.711 775.076C143.668 737.169 138.829 711.637 119.518 704.72C100.208 697.803 85.1726 713.21 62.7101 706.069C86.2414 773.959 130.756 779.902 159.711 775.076Z" fill="#F9E641" stroke="#EE8033" stroke-width="0.282668" stroke-miterlimit="22.9256" stroke-linejoin="round"/>
<path fill-rule="evenodd" clip-rule="evenodd" d="M159.711 775.076C147.412 746.229 144.904 730.92 124.344 723.756C103.784 716.592 72.66 737.192 52.0208 728.913C74.6118 778.835 116.193 787.176 159.711 775.076Z" fill="#F9E641" stroke="#EE8033" stroke-width="0.282668" stroke-miterlimit="22.9256" stroke-linejoin="round"/>
<path fill-rule="evenodd" clip-rule="evenodd" d="M159.711 775.077C149.71 759.143 137.568 742.755 116.265 740.849C94.9622 738.942 67.9637 758.455 46.5199 766.7C69.6527 791.156 96.0698 805.073 159.711 775.077Z" fill="#F9E641" stroke="#EE8033" stroke-width="0.282668" stroke-miterlimit="22.9256" stroke-linejoin="round"/>
<path fill-rule="evenodd" clip-rule="evenodd" d="M159.711 775.077C175.172 813.226 189.804 834.702 181.04 853.247C172.277 871.793 150.751 871.53 139.917 892.463C108.551 827.818 135.825 792.139 159.711 775.077Z" fill="#F9E641" stroke="#EE8033" stroke-width="0.282668" stroke-miterlimit="22.9256" stroke-linejoin="round"/>
<path fill-rule="evenodd" clip-rule="evenodd" d="M159.711 775.077C171.413 804.172 180.465 816.771 170.992 836.375C161.519 855.978 124.945 863.42 116.205 883.868C96.8791 832.594 120.384 797.293 159.711 775.077Z" fill="#F9E641" stroke="#EE8033" stroke-width="0.282668" stroke-miterlimit="22.9256" stroke-linejoin="round"/>
<path fill-rule="evenodd" clip-rule="evenodd" d="M159.711 775.077C163.907 793.415 166.908 813.589 153.193 830.001C139.478 846.412 106.589 851.705 85.5958 861.038C84.6606 827.388 93.4996 798.867 159.711 775.077Z" fill="#F9E641" stroke="#EE8033" stroke-width="0.282668" stroke-miterlimit="22.9256" stroke-linejoin="round"/>
<path fill-rule="evenodd" clip-rule="evenodd" d="M159.712 775.078C137.865 762.362 123.337 756.872 97.5088 766.997C71.6801 777.122 64.6978 801.814 45.2955 822.471C73.6223 823.359 96.0189 835.881 121.442 824.777C146.865 813.673 153.256 799.518 159.712 775.078Z" fill="#F9E641" stroke="#EE8033" stroke-width="0.282668" stroke-miterlimit="22.9256" stroke-linejoin="round"/>
<path fill-rule="evenodd" clip-rule="evenodd" d="M1065.7 594.844C1066.01 636.006 1060.72 661.446 1075.91 675.226C1091.1 689.006 1110.89 680.526 1128.91 695.719C1133.15 623.992 1094.3 601.467 1065.7 594.844Z" fill="#F9E641" stroke="#EE8033" stroke-width="0.282668" stroke-miterlimit="22.9256" stroke-linejoin="round"/>
<path fill-rule="evenodd" clip-rule="evenodd" d="M1065.7 594.844C1066.02 626.202 1062.48 641.306 1078.73 655.793C1094.99 670.279 1131.63 663.158 1147.53 678.704C1145.76 623.938 1110.54 600.319 1065.7 594.844Z" fill="#F9E641" stroke="#EE8033" stroke-width="0.282668" stroke-miterlimit="22.9256" stroke-linejoin="round"/>
<path fill-rule="evenodd" clip-rule="evenodd" d="M1065.7 594.844C1068.84 613.392 1073.79 633.179 1092.74 643.092C1111.69 653.006 1144.1 645.31 1167.07 645.899C1155.06 614.452 1135.98 591.486 1065.7 594.844Z" fill="#F9E641" stroke="#EE8033" stroke-width="0.282668" stroke-miterlimit="22.9256" stroke-linejoin="round"/>
<path fill-rule="evenodd" clip-rule="evenodd" d="M1065.7 594.844C1066.01 553.682 1060.72 528.242 1075.91 514.461C1091.1 500.681 1110.89 509.161 1128.91 493.968C1133.15 565.695 1094.3 588.221 1065.7 594.844Z" fill="#F9E641" stroke="#EE8033" stroke-width="0.282668" stroke-miterlimit="22.9256" stroke-linejoin="round"/>
<path fill-rule="evenodd" clip-rule="evenodd" d="M1065.7 594.844C1066.02 563.485 1062.48 548.382 1078.73 533.895C1094.99 519.408 1131.63 526.53 1147.53 510.983C1145.76 565.75 1110.54 589.369 1065.7 594.844Z" fill="#F9E641" stroke="#EE8033" stroke-width="0.282668" stroke-miterlimit="22.9256" stroke-linejoin="round"/>
<path fill-rule="evenodd" clip-rule="evenodd" d="M1065.7 594.844C1068.84 576.295 1073.79 556.509 1092.74 546.595C1111.69 536.682 1144.1 544.377 1167.07 543.789C1155.06 575.235 1135.98 598.202 1065.7 594.844Z" fill="#F9E641" stroke="#EE8033" stroke-width="0.282668" stroke-miterlimit="22.9256" stroke-linejoin="round"/>
<path fill-rule="evenodd" clip-rule="evenodd" d="M1065.7 594.842C1081.02 614.951 1092.34 625.582 1120.08 626.112C1147.81 626.642 1163.71 606.502 1189.54 594.842C1163.71 583.182 1147.81 563.042 1120.08 563.572C1092.34 564.102 1081.02 574.733 1065.7 594.842Z" fill="#F9E641" stroke="#EE8033" stroke-width="0.282668" stroke-miterlimit="22.9256" stroke-linejoin="round"/>
<path fill-rule="evenodd" clip-rule="evenodd" d="M594.84 1065.7C553.678 1066.01 528.238 1060.72 514.458 1075.91C500.678 1091.1 509.158 1110.89 493.965 1128.91C565.692 1133.15 588.217 1094.3 594.84 1065.7Z" fill="#F9E641" stroke="#EE8033" stroke-width="0.282668" stroke-miterlimit="22.9256" stroke-linejoin="round"/>
<path fill-rule="evenodd" clip-rule="evenodd" d="M594.84 1065.7C563.482 1066.02 548.378 1062.48 533.892 1078.73C519.405 1094.99 526.526 1131.63 510.98 1147.53C565.746 1145.76 589.365 1110.54 594.84 1065.7Z" fill="#F9E641" stroke="#EE8033" stroke-width="0.282668" stroke-miterlimit="22.9256" stroke-linejoin="round"/>
<path fill-rule="evenodd" clip-rule="evenodd" d="M594.84 1065.7C576.292 1068.84 556.505 1073.79 546.592 1092.74C536.678 1111.69 544.374 1144.1 543.785 1167.07C575.232 1155.06 598.199 1135.98 594.84 1065.7Z" fill="#F9E641" stroke="#EE8033" stroke-width="0.282668" stroke-miterlimit="22.9256" stroke-linejoin="round"/>
<path fill-rule="evenodd" clip-rule="evenodd" d="M594.84 1065.7C636.002 1066.01 661.443 1060.72 675.223 1075.91C689.003 1091.1 680.523 1110.89 695.716 1128.91C623.989 1133.15 601.463 1094.3 594.84 1065.7Z" fill="#F9E641" stroke="#EE8033" stroke-width="0.282668" stroke-miterlimit="22.9256" stroke-linejoin="round"/>
<path fill-rule="evenodd" clip-rule="evenodd" d="M594.84 1065.7C626.199 1066.02 641.302 1062.48 655.789 1078.73C670.276 1094.99 663.154 1131.63 678.701 1147.53C623.934 1145.76 600.315 1110.54 594.84 1065.7Z" fill="#F9E641" stroke="#EE8033" stroke-width="0.282668" stroke-miterlimit="22.9256" stroke-linejoin="round"/>
<path fill-rule="evenodd" clip-rule="evenodd" d="M594.84 1065.7C613.389 1068.84 633.175 1073.79 643.089 1092.74C653.003 1111.69 645.307 1144.1 645.896 1167.07C614.449 1155.06 591.482 1135.98 594.84 1065.7Z" fill="#F9E641" stroke="#EE8033" stroke-width="0.282668" stroke-miterlimit="22.9256" stroke-linejoin="round"/>
<path fill-rule="evenodd" clip-rule="evenodd" d="M594.842 1065.7C574.733 1081.02 564.102 1092.34 563.572 1120.08C563.042 1147.81 583.182 1163.71 594.842 1189.54C606.502 1163.71 626.642 1147.81 626.112 1120.08C625.582 1092.34 614.951 1081.02 594.842 1065.7Z" fill="#F9E641" stroke="#EE8033" stroke-width="0.282668" stroke-miterlimit="22.9256" stroke-linejoin="round"/>
<path d="M594.844 897.086C696.903 897.086 779.638 871.757 779.638 840.513C779.638 809.268 696.903 783.939 594.844 783.939C492.785 783.939 410.05 809.268 410.05 840.513C410.05 871.757 492.785 897.086 594.844 897.086Z" fill="#F9E641" stroke="#EE8033" stroke-width="0.188442" stroke-miterlimit="22.9256" stroke-linejoin="round"/>
<path fill-rule="evenodd" clip-rule="evenodd" d="M594.844 816.213C672.043 816.213 734.626 801.412 734.626 783.156C734.626 764.899 672.043 750.098 594.844 750.098C517.644 750.098 455.061 764.899 455.061 783.156C455.061 801.412 517.644 816.213 594.844 816.213Z" fill="#EE8033" stroke="#EE8033" stroke-width="0.188442" stroke-miterlimit="22.9256" stroke-linejoin="round"/>
<path fill-rule="evenodd" clip-rule="evenodd" d="M707.035 822.003H482.652L594.844 725.96L707.035 822.003Z" fill="#F9E641"/>
<path fill-rule="evenodd" clip-rule="evenodd" d="M594.844 837.106C704.708 837.106 793.771 809.84 793.771 776.205C793.771 742.571 704.708 715.305 594.844 715.305C484.979 715.305 395.916 742.571 395.916 776.205C395.916 809.84 484.979 837.106 594.844 837.106ZM594.844 816.213C672.043 816.213 734.626 801.412 734.626 783.156C734.626 764.899 672.043 750.098 594.844 750.098C517.644 750.098 455.061 764.899 455.061 783.156C455.061 801.412 517.644 816.213 594.844 816.213Z" fill="#F9E641" stroke="#EE8033" stroke-width="0.188442" stroke-miterlimit="22.9256" stroke-linejoin="round"/>
<path fill-rule="evenodd" clip-rule="evenodd" d="M594.844 725.96L663.388 784.638H526.299L594.844 725.96Z" fill="#F9E641"/>
<path fill-rule="evenodd" clip-rule="evenodd" d="M594.844 779.845C550.251 779.845 531.054 765.759 531.054 741.7C531.054 717.641 542.604 669.523 594.844 669.523C647.084 669.523 658.634 717.641 658.634 741.7C658.634 765.759 639.436 779.845 594.844 779.845Z" fill="#F9E641" stroke="#EE8033" stroke-width="0.188442" stroke-miterlimit="22.9256" stroke-linejoin="round"/>
<path d="M594.844 752.814C604.796 752.814 612.864 741.187 612.864 726.843C612.864 712.5 604.796 700.873 594.844 700.873C584.891 700.873 576.824 712.5 576.824 726.843C576.824 741.187 584.891 752.814 594.844 752.814Z" fill="#F9E641" stroke="#EE8033" stroke-width="0.188442" stroke-miterlimit="22.9256" stroke-linejoin="round"/>
<path d="M533.836 741.393C539.541 743.469 548.055 734.468 552.852 721.288C557.65 708.107 556.914 695.739 551.209 693.663C545.504 691.586 536.99 700.588 532.193 713.768C527.395 726.948 528.131 739.316 533.836 741.393Z" fill="#F9E641" stroke="#EE8033" stroke-width="0.0606198" stroke-miterlimit="22.9256" stroke-linejoin="round"/>
<path d="M655.853 741.393C650.148 743.469 641.634 734.468 636.837 721.288C632.04 708.107 632.775 695.739 638.481 693.663C644.186 691.586 652.699 700.588 657.497 713.768C662.294 726.948 661.558 739.316 655.853 741.393Z" fill="#F9E641" stroke="#EE8033" stroke-width="0.0606198" stroke-miterlimit="22.9256" stroke-linejoin="round"/>
<path fill-rule="evenodd" clip-rule="evenodd" d="M594.844 690.017C570.456 690.017 561.63 687.205 556.611 681.644C533.853 656.3 522.757 638.531 450.329 620.425C426.303 614.418 424.889 595.599 395.679 570.765L594.844 574.834L794.008 570.765C764.798 595.599 763.385 614.418 739.358 620.425C666.93 638.531 655.835 656.3 633.076 681.644C628.057 687.205 619.231 690.017 594.844 690.017Z" fill="#EE8033" stroke="#EE8033" stroke-width="0.188442" stroke-miterlimit="22.9256" stroke-linejoin="round"/>
<path d="M594.844 614.406C696.968 614.406 779.757 594.867 779.757 570.765C779.757 546.662 696.968 527.123 594.844 527.123C492.719 527.123 409.931 546.662 409.931 570.765C409.931 594.867 492.719 614.406 594.844 614.406Z" fill="#F9E641" stroke="#EE8033" stroke-width="0.188442" stroke-miterlimit="22.9256" stroke-linejoin="round"/>
<path fill-rule="evenodd" clip-rule="evenodd" d="M402.276 568.837C393.796 556.117 387.896 545.389 390.263 525.024C392.629 504.659 414.289 469.55 413.229 445.17C447.503 484.744 420.649 542.691 402.276 568.837Z" fill="#F9E641" stroke="#EE8033" stroke-width="0.188442" stroke-miterlimit="22.9256" stroke-linejoin="round"/>
<path fill-rule="evenodd" clip-rule="evenodd" d="M459.163 538.451C469.409 528.911 477.889 520.784 478.308 504.498C478.726 488.212 468.703 479.09 470.823 460.364C442.203 481.21 448.563 518.664 459.163 538.451Z" fill="#F9E641" stroke="#EE8033" stroke-width="0.188442" stroke-miterlimit="22.9256" stroke-linejoin="round"/>
<path fill-rule="evenodd" clip-rule="evenodd" d="M787.412 568.837C795.892 556.117 801.791 545.389 799.425 525.024C797.059 504.659 775.398 469.55 776.458 445.17C742.185 484.744 769.038 542.691 787.412 568.837Z" fill="#F9E641" stroke="#EE8033" stroke-width="0.188442" stroke-miterlimit="22.9256" stroke-linejoin="round"/>
<path fill-rule="evenodd" clip-rule="evenodd" d="M730.524 538.451C720.278 528.911 711.798 520.784 711.38 504.498C710.962 488.212 720.984 479.09 718.864 460.364C747.485 481.21 741.125 518.664 730.524 538.451Z" fill="#F9E641" stroke="#EE8033" stroke-width="0.188442" stroke-miterlimit="22.9256" stroke-linejoin="round"/>
<path fill-rule="evenodd" clip-rule="evenodd" d="M625.212 606.261C637.152 605.695 648.59 604.802 659.353 603.623L659.339 603.625L702.258 614.771L707.305 595.387C726.07 590.615 739.454 584.649 745.167 578.023V578.026L794.008 570.764L745.167 563.505V563.506C730.925 546.989 669.036 534.559 594.844 534.559C520.652 534.559 458.762 546.989 444.52 563.506V563.505L395.679 570.764L444.52 578.026V578.023C450.233 584.649 463.617 590.615 482.382 595.387L487.43 614.771L530.348 603.625L530.335 603.623C541.097 604.802 552.536 605.695 564.475 606.261L564.454 606.261L594.844 631.011L625.233 606.261L625.212 606.261Z" fill="#F9E641" stroke="#EE8033" stroke-width="0.188442" stroke-miterlimit="22.9256" stroke-linejoin="round"/>
<path fill-rule="evenodd" clip-rule="evenodd" d="M594.844 582.785C561.277 582.785 545.982 576.958 541.456 555.939C536.93 534.92 573.92 508.562 575.686 496.548C577.453 484.535 565.936 489.551 569.05 470.257C572.165 450.962 594.844 439.193 594.844 383.646C594.844 439.193 617.523 450.962 620.637 470.257C623.752 489.551 612.235 484.535 614.001 496.548C615.768 508.562 652.757 534.92 648.231 555.939C643.705 576.958 628.411 582.785 594.844 582.785Z" fill="#F9E641" stroke="#EE8033" stroke-width="0.188442" stroke-miterlimit="22.9256" stroke-linejoin="round"/>
<path fill-rule="evenodd" clip-rule="evenodd" d="M594.844 434.83C573.378 434.83 555.977 417.429 555.977 395.964C555.977 389.728 557.448 383.836 560.058 378.613L560.05 378.623C549.97 375.563 541.49 386.163 537.097 375.939C532.704 365.715 545.73 349.769 569.933 366.128L569.926 366.137C572.444 364.031 575.234 362.237 578.234 360.817L578.225 360.819C574.35 346.589 558.803 355.776 553.857 345.529C550.432 338.434 553.15 327.509 563.044 327.509C576.824 327.509 581.771 340.935 585.304 335.989C596.49 320.327 579.36 294.506 579.65 287.229C579.94 279.952 582.397 273.446 594.844 273.446C607.291 273.446 609.747 279.952 610.037 287.229C610.327 294.506 593.197 320.327 604.384 335.989C607.916 340.935 612.864 327.509 626.644 327.509C636.537 327.509 639.256 338.434 635.831 345.529C630.885 355.776 615.337 346.589 611.462 360.819L611.451 360.816C614.454 362.237 617.245 364.034 619.766 366.142L619.754 366.128C643.957 349.769 656.984 365.715 652.591 375.939C648.197 386.163 639.717 375.563 629.637 378.623L629.632 378.616C632.241 383.837 633.71 389.729 633.71 395.964C633.71 417.429 616.309 434.83 594.844 434.83Z" fill="#F9E641" stroke="#EE8033" stroke-width="0.188442" stroke-miterlimit="22.9256" stroke-linejoin="round"/>
<path d="M594.844 420.79C608.555 420.79 619.67 409.675 619.67 395.964C619.67 382.252 608.555 371.137 594.844 371.137C581.133 371.137 570.017 382.252 570.017 395.964C570.017 409.675 581.133 420.79 594.844 420.79Z" fill="#F9E641" stroke="#EE8033" stroke-width="0.188442" stroke-miterlimit="22.9256" stroke-linejoin="round"/>
<path fill-rule="evenodd" clip-rule="evenodd" d="M498.383 594.277C489.373 579.614 486.6 566.643 490.08 548.874C493.559 531.106 509.16 518.84 518.17 493.224C544.318 535.133 520.104 557.996 498.383 594.277Z" fill="#F9E641" stroke="#EE8033" stroke-width="0.188442" stroke-miterlimit="22.9256" stroke-linejoin="round"/>
<path fill-rule="evenodd" clip-rule="evenodd" d="M594.844 609.36C584.597 603.111 575.742 592.865 575.035 565.305C574.328 537.745 589.19 517.25 594.844 489.403C600.497 517.25 615.359 537.745 614.653 565.305C613.946 592.865 605.091 603.111 594.844 609.36Z" fill="#F9E641" stroke="#EE8033" stroke-width="0.188442" stroke-miterlimit="22.9256" stroke-linejoin="round"/>
<path fill-rule="evenodd" clip-rule="evenodd" d="M691.304 594.277C700.314 579.614 703.087 566.643 699.608 548.874C696.129 531.106 680.528 518.84 671.518 493.224C645.369 535.133 669.584 557.996 691.304 594.277Z" fill="#F9E641" stroke="#EE8033" stroke-width="0.188442" stroke-miterlimit="22.9256" stroke-linejoin="round"/>
<defs>
<radialGradient id="paint0_radial_2057_193" cx="0" cy="0" r="1" gradientUnits="userSpaceOnUse" gradientTransform="translate(594.842 594.842) scale(541.487)">
<stop stop-color="#FF9900"/>
<stop offset="0.0705882" stop-color="#FCC021"/>
<stop offset="0.580392" stop-color="#F9E641"/>
<stop offset="0.839216" stop-color="#FCD323"/>
<stop offset="1" stop-color="#F9E641"/>
</radialGradient>
</defs>
</svg>
